<svg width="320" height="80" viewBox="0 0 320 80" fill="none" xmlns="http://www.w3.org/2000/svg">
<path d="M115.228 28.753C116.19 30.3473 117.053 31.7092 117.798 32.8551V23.7208C117.798 22.1264 117.798 20.6068 117.798 19.1785C117.798 17.7502 117.84 16.5461 117.898 15.5912C117.903 14.9553 118.114 14.338 118.501 13.8307C118.878 13.3574 119.69 13.1166 120.954 13.1166C121.519 13.1013 122.083 13.1685 122.628 13.3159C122.991 13.4144 123.328 13.5901 123.616 13.8307C123.84 14.0401 123.995 14.3124 124.06 14.6113C124.127 14.9196 124.161 15.2342 124.16 15.5497C124.16 17.4374 124.138 19.5162 124.093 21.7859C124.093 24.0612 123.993 26.3365 123.917 28.6201C123.842 30.9037 123.741 33.0876 123.633 35.1553C123.524 37.223 123.44 39.0167 123.348 40.4283C123.323 40.7984 123.221 41.1593 123.048 41.4881C122.875 41.8169 122.635 42.1064 122.343 42.3382C121.643 42.8388 120.796 43.0984 119.932 43.0773C119.321 43.1398 118.704 43.0152 118.166 42.7202C117.672 42.3633 117.237 41.9318 116.877 41.4414C116.291 40.611 115.563 39.5564 114.709 38.1697C113.855 36.7829 112.942 35.2965 111.971 33.6855C111 32.0745 110.046 30.4221 109.1 28.753C108.154 27.0839 107.3 25.5642 106.588 24.2024C106.538 25.4563 106.488 26.8513 106.429 28.3544C106.371 29.8574 106.32 31.4268 106.253 32.9382C106.187 34.4495 106.111 35.8694 106.027 37.1898C105.944 38.5101 105.852 39.573 105.751 40.3951C105.667 41.1119 105.376 41.7894 104.914 42.3465C104.631 42.6225 104.287 42.8281 103.908 42.9464C103.53 43.0648 103.129 43.0926 102.737 43.0275C102.369 43.0414 102.002 42.9724 101.664 42.8257C101.327 42.679 101.027 42.4584 100.787 42.1805C100.369 41.5688 100.137 40.8513 100.117 40.1128C100.042 38.1863 100 36.1186 100 33.8682C100 31.6178 100 29.3674 100.042 27.0922C100.084 24.8169 100.109 22.6329 100.159 20.5154C100.209 18.3979 100.268 16.5295 100.318 14.877C100.323 14.6215 100.384 14.37 100.495 14.1394C100.606 13.9089 100.765 13.7045 100.963 13.5401C101.577 13.2085 102.276 13.064 102.972 13.1249C103.762 13.1061 104.551 13.1786 105.324 13.3408C105.626 13.4271 105.907 13.5721 106.151 13.7675C106.396 13.9628 106.598 14.2045 106.747 14.4784C107.534 15.7656 108.371 17.1689 109.359 18.8048L112.314 23.7872L115.228 28.753Z" fill="#3F51B5"/>
<path d="M146.646 29.4173C145.34 30.7514 144.053 32.0496 142.786 33.3118C143.088 33.6108 143.356 33.8848 143.624 34.1422L144.293 34.8315C144.511 35.0474 144.729 35.2799 144.955 35.5207C145.181 35.7615 145.449 36.0355 145.792 36.3511C146.277 36.8327 146.838 36.7746 147.466 36.1518L149.325 34.3083C149.994 33.6357 150.681 32.9548 151.367 32.2489L153.401 30.1729L155.252 28.3128C155.93 27.6402 156.825 27.7897 157.922 28.7696C158.504 29.2039 158.934 29.8078 159.153 30.4968C159.208 30.7497 159.204 31.0115 159.144 31.2631C159.083 31.5146 158.966 31.7493 158.801 31.95C158.098 32.8302 157.311 33.7935 156.44 34.8232C155.57 35.8528 154.699 36.8659 153.812 37.8541C152.924 38.8423 152.137 39.764 151.3 40.6359C150.463 41.5079 149.835 42.1971 149.283 42.7451C148.928 43.1498 148.487 43.472 147.992 43.6887C147.497 43.9054 146.96 44.0114 146.42 43.999C145.319 43.9011 144.292 43.408 143.532 42.6123C142.493 41.649 141.257 40.4782 139.823 39.0997C138.391 37.7212 136.91 36.2597 135.361 34.7318C133.812 33.2039 132.289 31.651 130.773 30.0982C129.258 28.5454 127.902 27.1088 126.713 25.8134C126.219 25.2487 126.152 24.7671 126.512 24.3768C128.326 22.3838 130.305 20.2885 132.448 18.0907C134.591 15.8929 136.703 13.8169 138.785 11.8627C138.957 11.6799 139.168 11.5379 139.403 11.4473C139.638 11.3568 139.89 11.3199 140.141 11.3395C140.795 11.5264 141.378 11.9022 141.815 12.4191C142.404 12.9252 142.834 13.588 143.054 14.329C143.11 14.5797 143.107 14.84 143.045 15.0892C142.982 15.3385 142.862 15.57 142.694 15.7656C141.372 17.1938 140.007 18.647 138.618 20.1417L134.574 24.4847L136.759 26.7683L138.952 29.0519L140.895 27.2333L143.038 25.2155L145.114 23.2391C145.775 22.6246 146.344 22.0932 146.788 21.6614C146.959 21.5138 147.163 21.4094 147.383 21.3574C147.603 21.3053 147.833 21.307 148.052 21.3624C148.681 21.5442 149.241 21.9086 149.659 22.4087C150.873 23.6045 151.116 24.601 150.405 25.3899C149.207 26.6936 147.96 28.0471 146.646 29.4173Z" fill="#8C9EFF"/>
<path d="M191.04 38.3939C190.772 39.6145 190.521 40.6442 190.278 41.4663C190.128 41.8086 189.924 42.1252 189.675 42.4047C189.452 42.6809 189.138 42.8693 188.788 42.9361C188.411 42.9943 187.95 43.0358 187.507 43.0773C187.063 43.1188 186.527 43.1354 186.017 43.1354C185.506 43.1354 185.012 43.1354 184.535 43.1354C184.102 43.1116 183.671 43.0561 183.246 42.9693C182.869 42.9309 182.523 42.7457 182.283 42.4545C182.054 42.1955 181.901 41.8798 181.839 41.5411C181.594 40.528 181.292 39.3322 180.935 37.9538C180.578 36.5753 180.215 35.1138 179.847 33.5693C179.49 32.0247 179.155 30.4691 178.842 28.9024C178.533 27.333 178.29 25.8466 178.097 24.4349C177.891 25.8466 177.631 27.3413 177.319 28.919C177.006 30.4968 176.685 32.0579 176.356 33.6025C176.021 35.147 175.678 36.6085 175.326 37.987C174.983 39.3737 174.657 40.5529 174.364 41.5411C174.277 41.8337 174.15 42.1131 173.987 42.3715C173.852 42.6133 173.626 42.7924 173.359 42.8697C172.894 42.9565 172.425 43.0147 171.953 43.0441C171.417 43.0441 170.873 43.1105 170.278 43.1105C169.684 43.1105 169.173 43.1105 168.604 43.069C168.035 43.0275 167.599 43.0026 167.198 42.9444C167.023 42.9261 166.854 42.8724 166.702 42.7867C166.549 42.701 166.416 42.5851 166.31 42.4462C166.116 42.1644 165.984 41.8444 165.925 41.5078C165.546 39.9965 165.11 38.1503 164.619 35.9691C164.128 33.7879 163.64 31.5154 163.154 29.1515C162.669 26.7932 162.208 24.4432 161.765 22.1181C161.321 19.793 160.927 17.7253 160.701 15.9233C160.665 15.656 160.687 15.384 160.766 15.1259C160.846 14.8679 160.981 14.63 161.162 14.4286C161.787 13.8497 162.587 13.4908 163.439 13.4072C163.782 13.3574 164.142 13.291 164.502 13.2079C164.837 13.1351 165.181 13.1099 165.523 13.1332C165.826 13.161 166.116 13.2701 166.36 13.4488C166.661 13.7082 166.867 14.0583 166.947 14.4452C167.265 16.0396 167.591 17.7253 167.909 19.5106C168.227 21.296 168.545 23.1063 168.855 24.9497C169.165 26.7932 169.441 28.6201 169.692 30.4304C169.943 32.2406 170.178 33.9512 170.396 35.5705C171.065 32.1382 171.816 28.645 172.647 25.0909C173.479 21.5368 174.238 18.0658 174.924 14.6777C174.978 14.4552 175.045 14.2361 175.125 14.0217C175.218 13.8141 175.373 13.64 175.569 13.5235C175.857 13.3671 176.172 13.2657 176.498 13.2245C177.028 13.1496 177.562 13.1163 178.097 13.1249C178.623 13.1167 179.149 13.1445 179.671 13.2079C179.992 13.2344 180.304 13.3218 180.592 13.4654C180.795 13.5674 180.957 13.7341 181.052 13.9387C181.156 14.1757 181.232 14.4237 181.278 14.6777C181.546 16.2721 181.864 17.9993 182.241 19.8179C182.618 21.6365 183.003 23.5049 183.405 25.3649C183.807 27.225 184.242 29.0602 184.61 30.8788C184.979 32.6973 185.372 34.408 185.699 36.0023C185.941 34.383 186.209 32.6807 186.536 30.804C186.862 28.9273 187.164 27.0922 187.498 25.1989C187.833 23.3056 188.16 21.4538 188.469 19.6186C188.779 17.7834 189.03 16.0728 189.248 14.4784C189.297 14.1161 189.475 13.7832 189.75 13.5401C190.008 13.3427 190.315 13.2191 190.638 13.183C190.99 13.1337 191.348 13.1337 191.701 13.183C192.053 13.2287 192.403 13.2953 192.747 13.3823C193.652 13.4992 194.514 13.8326 195.259 14.3539C195.446 14.5662 195.577 14.8225 195.637 15.0986C195.697 15.3747 195.685 15.6614 195.602 15.9316C195.362 17.2603 195.1 18.6941 194.815 20.2331C194.539 21.7776 194.237 23.3471 193.911 24.958C193.584 26.569 193.216 28.2215 192.923 29.8076C192.63 31.3936 192.304 32.9382 191.986 34.3913C191.667 35.8445 191.333 37.1732 191.04 38.3939Z" fill="#3F51B5"/>
<path d="M209.406 32.415L206.225 36.567C206.552 36.567 207.062 36.5255 207.657 36.5089C208.251 36.4922 208.98 36.4673 209.741 36.4258L212.177 36.3594L214.555 36.2846C215.292 36.2846 215.928 36.2348 216.48 36.2265H217.585C217.821 36.2144 218.057 36.2569 218.273 36.3506C218.49 36.4443 218.681 36.5866 218.833 36.7663C219.185 37.3476 219.341 38.0257 219.276 38.7011C219.289 39.132 219.227 39.5618 219.092 39.9716C218.993 40.2606 218.827 40.5223 218.607 40.7356C218.41 40.9168 218.18 41.0579 217.929 41.1508C217.657 41.2476 217.377 41.3199 217.091 41.3667C214.58 41.7985 211.868 42.1306 208.98 42.3632C206.091 42.5957 203.178 42.7119 200.257 42.687C199.63 42.7233 199.01 42.5541 198.49 42.2054C198.084 41.9042 197.789 41.4778 197.653 40.993C197.503 40.4806 197.474 39.9405 197.569 39.4152C197.662 38.8651 197.861 38.3379 198.155 37.8624C199.071 36.4507 200.109 34.9366 201.269 33.3201L204.802 28.3959C205.999 26.7351 207.138 25.1158 208.243 23.5298C209.348 21.9437 210.285 20.5071 211.089 19.2117C210.076 19.2615 209.021 19.303 207.941 19.328C206.862 19.3529 205.773 19.3778 204.702 19.3861L201.629 19.4442C200.65 19.4442 199.763 19.4857 198.959 19.4857C198.677 19.522 198.391 19.4904 198.124 19.3935C197.858 19.2966 197.618 19.1374 197.427 18.9294C197.039 18.281 196.858 17.5311 196.908 16.7786C196.908 14.8604 197.494 13.864 198.758 13.7892C202.023 13.6314 205.229 13.5235 208.36 13.4654C211.491 13.4072 214.681 13.4654 217.92 13.5899C218.4 13.5923 218.862 13.7764 219.209 14.1048C219.527 14.4197 219.755 14.8121 219.871 15.2424C219.997 15.6906 220.031 16.1593 219.971 16.6209C219.929 17.0678 219.792 17.5008 219.569 17.8914C218.526 19.5909 217.429 21.2711 216.279 22.9319C215.13 24.5927 213.983 26.2202 212.839 27.8146C211.672 29.3924 210.528 30.9258 209.406 32.415Z" fill="#3F51B5"/>
<path d="M150.547 1.8149C150.338 1.66846 150.079 1.60827 149.826 1.64699C149.573 1.68572 149.346 1.82034 149.191 2.0225L142.535 8.61584C142.336 8.77049 142.203 8.99484 142.164 9.24321C142.125 9.49159 142.183 9.74533 142.326 9.95278C142.537 10.0952 142.794 10.153 143.045 10.1145C143.297 10.0759 143.525 9.94392 143.682 9.74518L150.379 3.14353C150.57 2.98334 150.694 2.75777 150.725 2.51163C150.756 2.26549 150.692 2.01678 150.547 1.8149Z" fill="#3F51B5"/>
<path d="M163.975 8.15085L155.938 0.170741C155.72 0.0270027 155.455 -0.0289612 155.197 0.0142303C154.939 0.0574219 154.707 0.196525 154.548 0.403252L143.615 11.2482L151.66 19.2283C152.296 19.8594 153.535 19.6435 154.431 18.7633L163.74 9.521C163.95 9.36658 164.091 9.13788 164.135 8.88261C164.178 8.62734 164.121 8.36519 163.975 8.15085ZM158.182 7.05473C158.261 6.95601 158.375 6.89082 158.501 6.87233C158.627 6.85383 158.755 6.88341 158.86 6.95508L160.584 8.6657C160.656 8.76958 160.686 8.8968 160.668 9.02165C160.649 9.1465 160.583 9.25967 160.484 9.33832L158.131 11.6717C158.052 11.7704 157.938 11.8356 157.812 11.8541C157.686 11.8726 157.558 11.843 157.453 11.7714L155.729 10.0608C155.655 9.95655 155.626 9.82812 155.646 9.70262C155.666 9.57711 155.735 9.46435 155.838 9.38814L158.182 7.05473ZM154.783 3.88261L156.507 5.58492C156.592 5.71548 156.625 5.87231 156.6 6.02548C156.575 6.17865 156.495 6.31743 156.373 6.41532C156.276 6.53756 156.135 6.61843 155.98 6.64156C155.824 6.66469 155.666 6.62834 155.536 6.53988L153.803 4.84587C153.714 4.71748 153.677 4.56027 153.701 4.40608C153.724 4.25189 153.806 4.11226 153.929 4.01548C154.027 3.88907 154.17 3.80482 154.329 3.7801C154.488 3.75538 154.65 3.79207 154.783 3.88261ZM152.824 5.80083L154.548 7.51145C154.637 7.64082 154.672 7.79868 154.647 7.95293C154.622 8.10718 154.539 8.24624 154.414 8.34184C154.317 8.46408 154.176 8.54495 154.021 8.56808C153.865 8.59121 153.707 8.55486 153.577 8.4664L151.844 6.789C151.754 6.66028 151.718 6.50186 151.743 6.34702C151.768 6.19217 151.852 6.05296 151.978 5.9586C152.073 5.83047 152.212 5.7428 152.37 5.71348C152.527 5.68417 152.689 5.7154 152.824 5.80083ZM153.385 16.0728L147.935 10.6586C147.848 10.5296 147.812 10.3729 147.835 10.2193C147.859 10.0657 147.939 9.92619 148.061 9.82825C148.158 9.70602 148.299 9.62514 148.454 9.60201C148.61 9.57889 148.768 9.61523 148.898 9.70369L154.356 15.1179C154.445 15.2463 154.482 15.4035 154.458 15.5577C154.435 15.7119 154.353 15.8515 154.23 15.9483C154.132 16.0721 153.991 16.1552 153.835 16.1814C153.679 16.2075 153.518 16.1747 153.385 16.0894V16.0728ZM155.344 14.1297L149.885 8.71552C149.799 8.58554 149.765 8.42821 149.79 8.27451C149.815 8.12082 149.897 7.9819 150.019 7.88512C150.115 7.75987 150.255 7.67605 150.411 7.65128C150.567 7.6265 150.727 7.6627 150.857 7.75226L156.315 13.1664C156.384 13.3024 156.409 13.4567 156.385 13.6073C156.361 13.758 156.289 13.8972 156.181 14.005C156.072 14.1129 155.932 14.1838 155.78 14.2077C155.628 14.2316 155.472 14.2072 155.335 14.138L155.344 14.1297Z" fill="#8C9EFF"/>
<path d="M70.5262 62.8398V61.8438H68.9441V62.8398C68.9441 65.3301 65.7703 67.4004 62.6355 67.8398L63.2605 69.0898C65.9656 68.6406 68.6316 67.166 69.7449 65.0176C70.8582 67.1465 73.534 68.6406 76.2293 69.0898L76.8543 67.8398C73.7195 67.4004 70.5359 65.291 70.5262 62.8398ZM61.8152 72.293H68.9441V78.582H70.448V72.293H77.6355V71.0039H61.8152V72.293ZM92.4746 61.2188H90.9512V70.125H92.4746V66.4336H95.0918V65.1445H92.4746V61.2188ZM79.6426 69.4414H87.6699V62.3711H79.6426V69.4414ZM80.7559 78.1133H81.5762C82.709 78.123 84.3594 78.0449 86.0488 77.4883L85.8145 76.2578C84.584 76.668 83.2461 76.8145 82.2402 76.8535V71.6875H80.7559V78.1133ZM81.1465 68.2109V63.6211H86.1855V68.2109H81.1465ZM85.4434 73.0352H94.2129V71.8633H90.5996V70.3203H89.0957V71.8633H85.4434V73.0352ZM86.5957 76.1016C86.5859 77.6055 87.9043 78.543 89.8184 78.543C91.7227 78.543 93.0605 77.6055 93.0801 76.1016C93.0605 74.5977 91.7227 73.6699 89.8184 73.6602C87.9043 73.6699 86.5859 74.5977 86.5957 76.1016ZM87.9629 76.1016C87.9629 75.291 88.7344 74.7637 89.8184 74.7539C90.9023 74.7637 91.6738 75.291 91.6738 76.1016C91.6738 76.9316 90.9023 77.4688 89.8184 77.4492C88.7344 77.4688 87.9629 76.9316 87.9629 76.1016ZM111.806 70.3789H95.9855V71.6289H111.806V70.3789ZM97.7434 65.2812C97.7434 67.4395 100.126 68.7383 103.896 68.7383C107.626 68.7383 110.019 67.4395 110.029 65.2812C110.019 63.1035 107.626 61.8242 103.896 61.8438C100.126 61.8242 97.7434 63.1035 97.7434 65.2812ZM98.0363 78.2109H110.048V76.9219H99.5793V73.1523H98.0363V78.2109ZM99.3254 65.2812C99.3156 63.9238 101.093 63.0742 103.896 63.0742C106.679 63.0742 108.456 63.9238 108.466 65.2812C108.456 66.6582 106.679 67.4883 103.896 67.4883C101.093 67.4883 99.3156 66.6582 99.3254 65.2812ZM131.855 67.0977H121.464V62.1172H119.902V68.3672H131.855V67.0977ZM117.89 72.1562H122.031V78.582H123.554V72.1562H128.066V78.582H129.589V72.1562H133.711V70.8867H117.89V72.1562ZM143.628 63.7773V62.4492H142.026V63.7773C142.016 66.7656 138.647 69.3926 135.639 69.9688L136.343 71.2578C138.97 70.6426 141.714 68.7871 142.846 66.2383C143.97 68.7871 146.723 70.6523 149.35 71.2578L150.054 69.9688C147.036 69.4023 143.637 66.7559 143.628 63.7773ZM134.975 76.2188H150.874V74.9492H134.975V76.2188ZM166.416 61.2188H164.873V78.582H166.416V61.2188ZM152.275 74.0703L153.115 75.3203C158.936 72.5273 161.26 68.1035 161.279 63.1133H153.076V64.3633H159.717C159.375 68.5137 156.973 71.8438 152.275 74.0703ZM174.966 65.8867V62.7227H173.462V65.8867C173.443 69.0605 171.431 72.3906 168.892 73.6406L169.868 74.8711C171.821 73.8262 173.462 71.6289 174.234 69.0703C175.005 71.4824 176.607 73.543 178.521 74.5391L179.458 73.3086C176.987 72.0977 174.966 68.9434 174.966 65.8867ZM181.06 78.582H182.583V69.5977H185.493V68.2695H182.583V61.2188H181.06V78.582ZM202.11 69.2852H186.211V70.4961H202.11V69.2852ZM188.125 73.0352H198.594V74.5195H188.145V78.3477H200.684V77.2344H189.688V75.5742H200.118V71.8828H188.125V73.0352ZM188.223 62.8594H198.516V64.2852H188.282V67.9766H200.371V66.8633H189.805V65.3398H200.059V61.7461H188.223V62.8594ZM221.71 61.2383H220.186V74.2461H221.71V68.25H224.327V66.9609H221.71V61.2383ZM208.175 64.6172H218.526V63.3672H214.112V61.2383H212.589V63.3672H208.175V64.6172ZM209.171 68.8164C209.161 70.7695 210.841 72.0293 213.35 72.0195C215.831 72.0293 217.511 70.7695 217.53 68.8164C217.511 66.8438 215.831 65.5742 213.35 65.5742C210.841 65.5742 209.161 66.8438 209.171 68.8164ZM210.636 68.8164C210.626 67.5762 211.71 66.7754 213.35 66.7852C214.971 66.7754 216.065 67.5762 216.085 68.8164C216.065 70.0371 214.971 70.8281 213.35 70.8086C211.71 70.8281 210.626 70.0371 210.636 68.8164ZM210.85 78.2109H222.511V76.9219H212.354V73.2109H210.85V78.2109ZM239.264 66.5117H228.932V61.8828H227.408V67.7617H239.264V66.5117ZM225.221 71.082H232.506V74.6758H234.029V71.082H241.061V69.8125H225.221V71.082ZM227.252 78.2109H239.381V76.9219H228.775V73.1328H227.252V78.2109ZM257.189 61.2188H255.704V78.582H257.189V61.2188ZM242.521 68.7188C242.53 72.4102 243.995 74.7637 246.251 74.7539C248.39 74.7637 249.845 72.6445 249.991 69.2656H252.228V77.7031H253.693V61.5898H252.228V67.9961H249.982C249.786 64.7246 248.361 62.6934 246.251 62.6836C243.995 62.6934 242.53 65.0273 242.521 68.7188ZM243.966 68.7188C243.946 65.8965 244.845 64.1289 246.251 64.1289C247.667 64.1289 248.566 65.8965 248.556 68.7188C248.566 71.5312 247.667 73.3086 246.251 73.2891C244.845 73.3086 243.946 71.5312 243.966 68.7188Z" fill="#3F51B5"/>
</svg>
