<svg width="320" height="80" viewBox="0 0 320 80" fill="none" xmlns="http://www.w3.org/2000/svg">
<path d="M115.228 28.753C116.19 30.3473 117.053 31.7092 117.798 32.8551V23.7208C117.798 22.1264 117.798 20.6068 117.798 19.1785C117.798 17.7502 117.84 16.5461 117.898 15.5912C117.903 14.9553 118.114 14.338 118.501 13.8307C118.878 13.3574 119.69 13.1166 120.954 13.1166C121.519 13.1013 122.083 13.1685 122.628 13.3159C122.991 13.4144 123.328 13.5901 123.616 13.8307C123.84 14.0401 123.995 14.3124 124.06 14.6113C124.127 14.9196 124.161 15.2342 124.16 15.5497C124.16 17.4374 124.138 19.5162 124.093 21.7859C124.093 24.0612 123.993 26.3365 123.917 28.6201C123.842 30.9037 123.741 33.0876 123.633 35.1553C123.524 37.223 123.44 39.0167 123.348 40.4283C123.323 40.7984 123.221 41.1593 123.048 41.4881C122.875 41.8169 122.635 42.1064 122.343 42.3382C121.643 42.8388 120.796 43.0984 119.932 43.0773C119.321 43.1398 118.704 43.0152 118.166 42.7202C117.672 42.3633 117.237 41.9318 116.877 41.4414C116.291 40.611 115.563 39.5564 114.709 38.1697C113.855 36.7829 112.942 35.2965 111.971 33.6855C111 32.0745 110.046 30.4221 109.1 28.753C108.154 27.0839 107.3 25.5642 106.588 24.2024C106.538 25.4563 106.488 26.8513 106.429 28.3544C106.371 29.8574 106.32 31.4268 106.253 32.9382C106.187 34.4495 106.111 35.8695 106.027 37.1898C105.944 38.5101 105.852 39.573 105.751 40.3951C105.667 41.1119 105.376 41.7894 104.914 42.3465C104.631 42.6225 104.287 42.8281 103.908 42.9464C103.53 43.0648 103.129 43.0926 102.737 43.0275C102.369 43.0414 102.002 42.9724 101.664 42.8257C101.327 42.679 101.027 42.4584 100.787 42.1805C100.369 41.5688 100.137 40.8513 100.117 40.1128C100.042 38.1863 100 36.1186 100 33.8682C100 31.6178 100 29.3674 100.042 27.0922C100.084 24.8169 100.109 22.6329 100.159 20.5154C100.209 18.3979 100.268 16.5295 100.318 14.877C100.323 14.6215 100.384 14.37 100.495 14.1394C100.606 13.9089 100.765 13.7045 100.963 13.5401C101.577 13.2085 102.276 13.064 102.972 13.1249C103.762 13.1061 104.551 13.1786 105.324 13.3408C105.626 13.4271 105.907 13.5721 106.151 13.7675C106.396 13.9628 106.598 14.2045 106.747 14.4784C107.534 15.7656 108.371 17.1689 109.359 18.8048L112.314 23.7872L115.228 28.753Z" fill="#3F51B5"/>
<path d="M146.646 29.4173C145.34 30.7514 144.053 32.0496 142.786 33.3118C143.088 33.6108 143.356 33.8848 143.624 34.1422L144.293 34.8315C144.511 35.0474 144.729 35.2799 144.955 35.5207C145.181 35.7615 145.449 36.0355 145.792 36.3511C146.277 36.8327 146.838 36.7746 147.466 36.1518L149.325 34.3083C149.994 33.6357 150.681 32.9548 151.367 32.2489L153.401 30.1729L155.252 28.3128C155.93 27.6402 156.825 27.7897 157.922 28.7696C158.504 29.2039 158.934 29.8078 159.153 30.4968C159.208 30.7497 159.204 31.0115 159.144 31.2631C159.083 31.5146 158.966 31.7493 158.801 31.95C158.098 32.8302 157.311 33.7935 156.44 34.8232C155.57 35.8528 154.699 36.8659 153.812 37.8541C152.924 38.8423 152.137 39.764 151.3 40.6359C150.463 41.5079 149.835 42.1971 149.283 42.7451C148.928 43.1498 148.487 43.472 147.992 43.6887C147.497 43.9054 146.96 44.0114 146.42 43.999C145.319 43.9011 144.292 43.408 143.532 42.6123C142.493 41.649 141.257 40.4782 139.823 39.0997C138.391 37.7212 136.91 36.2597 135.361 34.7318C133.812 33.2039 132.289 31.651 130.773 30.0982C129.258 28.5454 127.902 27.1088 126.713 25.8134C126.219 25.2487 126.152 24.7671 126.512 24.3768C128.326 22.3838 130.305 20.2885 132.448 18.0907C134.591 15.8929 136.703 13.8169 138.785 11.8627C138.957 11.6799 139.168 11.5379 139.403 11.4473C139.638 11.3568 139.89 11.3199 140.141 11.3395C140.795 11.5264 141.378 11.9022 141.815 12.4191C142.404 12.9252 142.834 13.588 143.054 14.329C143.11 14.5797 143.107 14.84 143.045 15.0892C142.982 15.3385 142.862 15.57 142.694 15.7656C141.372 17.1938 140.007 18.647 138.618 20.1417L134.574 24.4847L136.759 26.7683L138.952 29.0519L140.895 27.2333L143.038 25.2155L145.114 23.2391C145.775 22.6246 146.344 22.0932 146.788 21.6614C146.959 21.5138 147.163 21.4094 147.383 21.3574C147.603 21.3053 147.833 21.307 148.052 21.3624C148.681 21.5442 149.241 21.9086 149.659 22.4087C150.873 23.6045 151.116 24.601 150.405 25.3899C149.207 26.6936 147.96 28.0471 146.646 29.4173Z" fill="#8C9EFF"/>
<path d="M191.04 38.3939C190.772 39.6145 190.521 40.6442 190.278 41.4663C190.128 41.8086 189.924 42.1252 189.675 42.4047C189.452 42.6809 189.138 42.8693 188.788 42.9361C188.411 42.9943 187.95 43.0358 187.507 43.0773C187.063 43.1188 186.527 43.1354 186.017 43.1354C185.506 43.1354 185.012 43.1354 184.535 43.1354C184.102 43.1116 183.671 43.0561 183.246 42.9693C182.869 42.9309 182.523 42.7457 182.283 42.4545C182.054 42.1955 181.901 41.8798 181.839 41.5411C181.594 40.528 181.292 39.3322 180.935 37.9538C180.578 36.5753 180.215 35.1138 179.847 33.5693C179.49 32.0247 179.155 30.4691 178.842 28.9024C178.533 27.333 178.29 25.8466 178.097 24.4349C177.891 25.8466 177.631 27.3413 177.319 28.919C177.006 30.4968 176.685 32.0579 176.356 33.6025C176.021 35.147 175.678 36.6085 175.326 37.987C174.983 39.3737 174.657 40.5529 174.364 41.5411C174.277 41.8337 174.15 42.1131 173.987 42.3715C173.852 42.6133 173.626 42.7924 173.359 42.8697C172.894 42.9565 172.425 43.0147 171.953 43.0441C171.417 43.0441 170.873 43.1105 170.278 43.1105C169.684 43.1105 169.173 43.1105 168.604 43.069C168.035 43.0275 167.599 43.0026 167.198 42.9444C167.023 42.9261 166.854 42.8724 166.702 42.7867C166.549 42.701 166.416 42.5851 166.31 42.4462C166.116 42.1644 165.984 41.8444 165.925 41.5078C165.546 39.9965 165.11 38.1503 164.619 35.9691C164.128 33.7879 163.64 31.5154 163.154 29.1515C162.669 26.7932 162.208 24.4432 161.765 22.1181C161.321 19.793 160.927 17.7253 160.701 15.9233C160.665 15.656 160.687 15.384 160.766 15.1259C160.846 14.8679 160.981 14.63 161.162 14.4286C161.787 13.8497 162.587 13.4908 163.439 13.4072C163.782 13.3574 164.142 13.291 164.502 13.2079C164.837 13.1351 165.181 13.1099 165.523 13.1332C165.826 13.161 166.116 13.2701 166.36 13.4488C166.661 13.7082 166.867 14.0583 166.947 14.4452C167.265 16.0396 167.591 17.7253 167.909 19.5106C168.227 21.296 168.545 23.1063 168.855 24.9497C169.165 26.7932 169.441 28.6201 169.692 30.4304C169.943 32.2406 170.178 33.9512 170.396 35.5705C171.065 32.1382 171.816 28.645 172.647 25.0909C173.479 21.5368 174.238 18.0658 174.924 14.6777C174.978 14.4552 175.045 14.2361 175.125 14.0217C175.218 13.8141 175.373 13.64 175.569 13.5235C175.857 13.3671 176.172 13.2657 176.498 13.2245C177.028 13.1496 177.562 13.1163 178.097 13.1249C178.623 13.1167 179.149 13.1445 179.671 13.2079C179.992 13.2344 180.304 13.3218 180.592 13.4654C180.795 13.5674 180.957 13.7341 181.052 13.9387C181.156 14.1757 181.232 14.4237 181.278 14.6777C181.546 16.2721 181.864 17.9993 182.241 19.8179C182.618 21.6365 183.003 23.5049 183.405 25.3649C183.807 27.225 184.242 29.0602 184.61 30.8788C184.979 32.6973 185.372 34.408 185.699 36.0023C185.941 34.383 186.209 32.6807 186.536 30.804C186.862 28.9273 187.164 27.0922 187.498 25.1989C187.833 23.3056 188.16 21.4538 188.469 19.6186C188.779 17.7834 189.03 16.0728 189.248 14.4784C189.297 14.1161 189.475 13.7832 189.75 13.5401C190.008 13.3427 190.315 13.2191 190.638 13.183C190.99 13.1337 191.348 13.1337 191.701 13.183C192.053 13.2287 192.403 13.2953 192.747 13.3823C193.652 13.4992 194.514 13.8326 195.259 14.3539C195.446 14.5662 195.577 14.8225 195.637 15.0986C195.697 15.3747 195.685 15.6614 195.602 15.9316C195.362 17.2603 195.1 18.6941 194.815 20.2331C194.539 21.7776 194.237 23.3471 193.911 24.958C193.584 26.569 193.216 28.2215 192.923 29.8076C192.63 31.3936 192.304 32.9382 191.986 34.3914C191.667 35.8445 191.333 37.1732 191.04 38.3939Z" fill="#3F51B5"/>
<path d="M209.406 32.415L206.225 36.567C206.552 36.567 207.062 36.5255 207.657 36.5089C208.251 36.4923 208.98 36.4673 209.741 36.4258L212.177 36.3594L214.555 36.2846C215.292 36.2846 215.928 36.2348 216.48 36.2265H217.585C217.821 36.2144 218.057 36.2569 218.273 36.3506C218.49 36.4443 218.681 36.5866 218.833 36.7663C219.185 37.3476 219.341 38.0257 219.276 38.7011C219.289 39.132 219.227 39.5618 219.092 39.9716C218.993 40.2606 218.827 40.5223 218.607 40.7356C218.41 40.9168 218.18 41.0579 217.929 41.1508C217.657 41.2476 217.377 41.3199 217.091 41.3667C214.58 41.7985 211.868 42.1306 208.98 42.3632C206.091 42.5957 203.178 42.7119 200.257 42.687C199.63 42.7233 199.01 42.554 198.49 42.2054C198.084 41.9042 197.789 41.4778 197.653 40.993C197.503 40.4806 197.474 39.9405 197.569 39.4152C197.662 38.8651 197.861 38.3379 198.155 37.8624C199.071 36.4507 200.109 34.9366 201.269 33.3201L204.802 28.3959C205.999 26.7351 207.138 25.1158 208.243 23.5298C209.348 21.9437 210.285 20.5071 211.089 19.2117C210.076 19.2615 209.021 19.303 207.941 19.328C206.862 19.3529 205.773 19.3778 204.702 19.3861L201.629 19.4442C200.65 19.4442 199.763 19.4857 198.959 19.4857C198.677 19.522 198.391 19.4904 198.124 19.3935C197.858 19.2966 197.618 19.1374 197.427 18.9294C197.039 18.281 196.858 17.5311 196.908 16.7786C196.908 14.8604 197.494 13.864 198.758 13.7892C202.023 13.6314 205.229 13.5235 208.36 13.4654C211.491 13.4072 214.681 13.4654 217.92 13.5899C218.4 13.5923 218.862 13.7764 219.209 14.1048C219.527 14.4197 219.755 14.8121 219.871 15.2424C219.997 15.6906 220.031 16.1593 219.971 16.6209C219.929 17.0678 219.792 17.5008 219.569 17.8914C218.526 19.5909 217.429 21.2711 216.279 22.9319C215.13 24.5927 213.983 26.2202 212.839 27.8146C211.672 29.3924 210.528 30.9258 209.406 32.415Z" fill="#3F51B5"/>
<path d="M150.547 1.8149C150.338 1.66846 150.079 1.60827 149.826 1.64699C149.573 1.68572 149.346 1.82034 149.191 2.0225L142.535 8.61584C142.336 8.77049 142.203 8.99484 142.164 9.24321C142.125 9.49159 142.183 9.74533 142.326 9.95278C142.537 10.0952 142.794 10.153 143.045 10.1145C143.297 10.0759 143.525 9.94392 143.682 9.74518L150.379 3.14353C150.57 2.98334 150.694 2.75777 150.725 2.51163C150.756 2.26549 150.692 2.01678 150.547 1.8149Z" fill="#3F51B5"/>
<path d="M163.975 8.15085L155.938 0.170741C155.72 0.0270027 155.455 -0.0289612 155.197 0.0142303C154.939 0.0574219 154.707 0.196525 154.548 0.403252L143.615 11.2482L151.66 19.2283C152.296 19.8594 153.535 19.6435 154.431 18.7633L163.74 9.521C163.95 9.36658 164.091 9.13788 164.135 8.88261C164.178 8.62734 164.121 8.36519 163.975 8.15085ZM158.182 7.05473C158.261 6.95601 158.375 6.89082 158.501 6.87233C158.627 6.85383 158.755 6.88341 158.86 6.95508L160.584 8.6657C160.656 8.76958 160.686 8.8968 160.668 9.02165C160.649 9.1465 160.583 9.25967 160.484 9.33832L158.131 11.6717C158.052 11.7704 157.938 11.8356 157.812 11.8541C157.686 11.8726 157.558 11.843 157.453 11.7714L155.729 10.0608C155.655 9.95655 155.626 9.82812 155.646 9.70262C155.666 9.57711 155.735 9.46435 155.838 9.38814L158.182 7.05473ZM154.783 3.88261L156.507 5.58492C156.592 5.71548 156.625 5.87231 156.6 6.02548C156.575 6.17865 156.495 6.31743 156.373 6.41532C156.276 6.53756 156.135 6.61843 155.98 6.64156C155.824 6.66469 155.666 6.62834 155.536 6.53988L153.803 4.84587C153.714 4.71748 153.677 4.56027 153.701 4.40608C153.724 4.25189 153.806 4.11226 153.929 4.01548C154.027 3.88907 154.17 3.80482 154.329 3.7801C154.488 3.75538 154.65 3.79207 154.783 3.88261ZM152.824 5.80083L154.548 7.51144C154.637 7.64082 154.672 7.79868 154.647 7.95293C154.622 8.10718 154.539 8.24624 154.414 8.34184C154.317 8.46408 154.176 8.54495 154.021 8.56808C153.865 8.59121 153.707 8.55486 153.577 8.4664L151.844 6.789C151.754 6.66028 151.718 6.50186 151.743 6.34702C151.768 6.19217 151.852 6.05296 151.978 5.9586C152.073 5.83047 152.212 5.7428 152.37 5.71348C152.527 5.68417 152.689 5.7154 152.824 5.80083ZM153.385 16.0728L147.935 10.6586C147.848 10.5296 147.812 10.3729 147.835 10.2193C147.859 10.0657 147.939 9.92619 148.061 9.82825C148.158 9.70602 148.299 9.62514 148.454 9.60201C148.61 9.57889 148.768 9.61523 148.898 9.70369L154.356 15.1179C154.445 15.2463 154.482 15.4035 154.458 15.5577C154.435 15.7119 154.353 15.8515 154.23 15.9483C154.132 16.0721 153.991 16.1552 153.835 16.1814C153.679 16.2075 153.518 16.1747 153.385 16.0894V16.0728ZM155.344 14.1297L149.885 8.71552C149.799 8.58554 149.765 8.42821 149.79 8.27451C149.815 8.12082 149.897 7.9819 150.019 7.88512C150.115 7.75987 150.255 7.67605 150.411 7.65128C150.567 7.6265 150.727 7.6627 150.857 7.75226L156.315 13.1664C156.384 13.3024 156.409 13.4567 156.385 13.6073C156.361 13.758 156.289 13.8972 156.181 14.005C156.072 14.1129 155.932 14.1838 155.78 14.2077C155.628 14.2316 155.472 14.2072 155.335 14.138L155.344 14.1297Z" fill="#8C9EFF"/>
<path d="M72.7818 64.28C72.7685 64.5067 72.7551 64.7667 72.7418 65.06C73.1818 65.2467 73.6618 65.46 74.1818 65.7C74.7018 65.9267 75.2285 66.1733 75.7618 66.44C76.2951 66.6933 76.8018 66.9467 77.2818 67.2C77.7618 67.4533 78.1818 67.6867 78.5418 67.9C78.7818 68.0467 78.9485 68.3 79.0418 68.66C79.1485 69.02 79.0685 69.4133 78.8018 69.84C78.5751 70.2267 78.2751 70.4667 77.9018 70.56C77.5418 70.6533 77.1951 70.6267 76.8618 70.48C76.4351 70.3067 75.9818 70.12 75.5018 69.92C75.0218 69.7067 74.5285 69.4933 74.0218 69.28C73.5285 69.0533 73.0285 68.8267 72.5218 68.6C72.0285 68.36 71.5551 68.12 71.1018 67.88C70.7418 68.1867 70.3551 68.4867 69.9418 68.78C69.5418 69.0733 69.1351 69.36 68.7218 69.64C68.3218 69.92 67.9218 70.1867 67.5218 70.44C67.1218 70.68 66.7551 70.9 66.4218 71.1C66.0351 71.3267 65.6685 71.42 65.3218 71.38C64.9751 71.3267 64.6618 71.1333 64.3818 70.8C64.1151 70.4933 64.0018 70.1667 64.0418 69.82C64.0818 69.4733 64.2151 69.1933 64.4418 68.98C65.1351 68.34 65.8751 67.72 66.6618 67.12C67.4485 66.5067 68.1951 65.9133 68.9018 65.34C68.8751 64.8333 68.8485 64.3467 68.8218 63.88C68.8085 63.4 68.7951 62.9467 68.7818 62.52C68.7818 62.3067 68.8018 62.1067 68.8418 61.92C68.8951 61.72 68.9951 61.5533 69.1418 61.42C69.2885 61.2733 69.4885 61.16 69.7418 61.08C70.0085 60.9867 70.3418 60.9333 70.7418 60.92C71.1551 60.9067 71.4951 60.9333 71.7618 61C72.0418 61.0533 72.2618 61.1467 72.4218 61.28C72.5818 61.4 72.6951 61.5533 72.7618 61.74C72.8285 61.9133 72.8618 62.1067 72.8618 62.32C72.8618 62.5733 72.8551 62.8067 72.8418 63.02C72.8418 63.22 72.8351 63.4267 72.8218 63.64C72.8085 63.84 72.7951 64.0533 72.7818 64.28ZM78.5418 72C78.7151 72.2 78.8085 72.4733 78.8218 72.82C78.8218 73.3133 78.7085 73.6533 78.4818 73.84C78.2551 74.0133 77.9951 74.1133 77.7018 74.14C76.9818 74.22 76.2685 74.2933 75.5618 74.36C74.8551 74.4133 74.1418 74.4667 73.4218 74.52C73.4218 74.8 73.4151 75.1 73.4018 75.42C73.4018 75.74 73.3951 76.0533 73.3818 76.36C73.3818 76.68 73.3751 76.9667 73.3618 77.22C73.3618 77.4867 73.3551 77.7 73.3418 77.86C73.3151 78.1533 73.2351 78.38 73.1018 78.54C72.9818 78.7133 72.7885 78.8533 72.5218 78.96C72.4418 78.9867 72.3285 79.0067 72.1818 79.02C72.0351 79.0467 71.8751 79.06 71.7018 79.06C71.5285 79.0733 71.3618 79.0667 71.2018 79.04C71.0418 79.0267 70.9151 79 70.8218 78.96C70.6485 78.88 70.5018 78.7533 70.3818 78.58C70.2751 78.42 70.2085 78.2067 70.1818 77.94C70.1685 77.8067 70.1618 77.62 70.1618 77.38C70.1618 77.14 70.1618 76.8667 70.1618 76.56C70.1618 76.2667 70.1618 75.96 70.1618 75.64C70.1618 75.32 70.1618 75.0133 70.1618 74.72C68.7751 74.7867 67.3818 74.8267 65.9818 74.84C65.6085 74.84 65.3151 74.74 65.1018 74.54C64.8885 74.3267 64.7818 73.9867 64.7818 73.52C64.7685 73.08 64.8618 72.74 65.0618 72.5C65.2751 72.26 65.5551 72.1333 65.9018 72.12C66.9818 72.0667 68.0218 72.02 69.0218 71.98C70.0351 71.9267 71.0285 71.88 72.0018 71.84C72.9751 71.8 73.9418 71.7733 74.9018 71.76C75.8751 71.7333 76.8618 71.7133 77.8618 71.7C78.1551 71.7 78.3818 71.8 78.5418 72ZM89.6524 61.3C90.0791 61.3133 90.3058 61.5333 90.3324 61.96C90.3724 63.28 90.3858 64.5667 90.3724 65.82C90.3591 67.0733 90.3258 68.26 90.2724 69.38C90.2458 69.7533 90.1658 70.0067 90.0324 70.14C89.8991 70.2733 89.6858 70.3533 89.3924 70.38C88.8724 70.4467 88.2924 70.5 87.6524 70.54C87.0124 70.58 86.3524 70.62 85.6724 70.66C85.0058 70.6867 84.3391 70.7133 83.6724 70.74C83.0191 70.7667 82.4124 70.7867 81.8524 70.8C81.3324 70.8133 80.9658 70.7 80.7524 70.46C80.5391 70.2067 80.4191 69.8267 80.3924 69.32C80.3258 68.2667 80.2791 67.1333 80.2524 65.92C80.2258 64.7067 80.2124 63.5333 80.2124 62.4C80.2124 62.0933 80.2858 61.8667 80.4324 61.72C80.5924 61.56 80.8058 61.4733 81.0724 61.46C81.3124 61.4467 81.6524 61.4333 82.0924 61.42C82.5458 61.4067 83.0458 61.3933 83.5924 61.38C84.1391 61.3667 84.7124 61.3533 85.3124 61.34C85.9124 61.3267 86.4858 61.32 87.0324 61.32C87.5924 61.3067 88.0991 61.3 88.5524 61.3C89.0191 61.3 89.3858 61.3 89.6524 61.3ZM92.9324 72.16C92.9324 72.2 92.9324 72.2533 92.9324 72.32C93.1991 72.3067 93.4724 72.3 93.7524 72.3C94.0324 72.3 94.3391 72.2933 94.6724 72.28C94.8058 72.28 94.9258 72.2867 95.0324 72.3C95.1391 72.3133 95.2324 72.36 95.3124 72.44C95.3924 72.5067 95.4524 72.6133 95.4924 72.76C95.5324 72.9067 95.5524 73.1133 95.5524 73.38C95.5391 73.82 95.4724 74.1 95.3524 74.22C95.2324 74.34 95.0791 74.4067 94.8924 74.42C94.8258 74.42 94.7258 74.4267 94.5924 74.44C94.4591 74.4533 94.3324 74.46 94.2124 74.46C94.4791 74.6067 94.6858 74.8667 94.8324 75.24C94.9791 75.6 95.0591 75.9933 95.0724 76.42C95.0991 77.3267 94.7991 78.06 94.1724 78.62C93.5591 79.18 92.7124 79.4733 91.6324 79.5C91.0991 79.5133 90.6124 79.4533 90.1724 79.32C89.7458 79.1867 89.3791 78.9867 89.0724 78.72C88.7658 78.4667 88.5258 78.1533 88.3524 77.78C88.1924 77.42 88.1124 77.0133 88.1124 76.56C88.1124 76.4 88.1258 76.2267 88.1524 76.04C88.1924 75.8667 88.2458 75.6933 88.3124 75.52C88.3791 75.3467 88.4524 75.1933 88.5324 75.06C88.6124 74.9267 88.7058 74.8333 88.8124 74.78C88.6658 74.8067 88.4924 74.8267 88.2924 74.84C88.1058 74.8533 87.9791 74.86 87.9124 74.86C87.6858 74.86 87.4991 74.7933 87.3524 74.66C87.2058 74.5133 87.1324 74.2 87.1324 73.72C87.1324 73.4667 87.1524 73.2667 87.1924 73.12C87.2324 72.96 87.2858 72.84 87.3524 72.76C87.4324 72.68 87.5191 72.6267 87.6124 72.6C87.7191 72.5733 87.8391 72.5533 87.9724 72.54C88.3191 72.5267 88.6391 72.5133 88.9324 72.5C89.2391 72.4867 89.5324 72.4733 89.8124 72.46C89.7991 72.38 89.7924 72.3 89.7924 72.22C89.7924 72.1267 89.7924 72.0333 89.7924 71.94C89.7791 71.5133 89.8791 71.22 90.0924 71.06C90.3058 70.8867 90.7324 70.7933 91.3724 70.78C91.9991 70.7667 92.4258 70.84 92.6524 71C92.8791 71.1467 92.9791 71.4733 92.9524 71.98C92.9391 72.0467 92.9324 72.1067 92.9324 72.16ZM95.0324 63.72C95.0458 64.04 95.0524 64.3667 95.0524 64.7C95.2391 64.7 95.4124 64.7 95.5724 64.7C95.7458 64.7 95.8924 64.7067 96.0124 64.72C96.3991 64.76 96.6658 64.8867 96.8124 65.1C96.9724 65.3133 97.0524 65.6267 97.0524 66.04C97.0524 66.5333 96.9591 66.8733 96.7724 67.06C96.5991 67.2467 96.3524 67.3667 96.0324 67.42C95.9124 67.4467 95.7591 67.4667 95.5724 67.48C95.3991 67.4933 95.2124 67.5 95.0124 67.5C94.9991 67.82 94.9858 68.14 94.9724 68.46C94.9591 68.7667 94.9391 69.0733 94.9124 69.38C94.8858 69.6733 94.8058 69.9067 94.6724 70.08C94.5524 70.24 94.3591 70.3733 94.0924 70.48C94.0124 70.5067 93.8991 70.5333 93.7524 70.56C93.6058 70.5733 93.4458 70.5867 93.2724 70.6C93.0991 70.6 92.9324 70.5933 92.7724 70.58C92.6124 70.5533 92.4858 70.52 92.3924 70.48C92.2191 70.4 92.0658 70.28 91.9324 70.12C91.8124 69.9467 91.7524 69.7267 91.7524 69.46C91.7391 68.9 91.7258 68.36 91.7124 67.84C91.7124 67.3067 91.7058 66.7733 91.6924 66.24C91.6791 65.6933 91.6724 65.1333 91.6724 64.56C91.6724 63.9867 91.6791 63.3667 91.6924 62.7C91.6924 62.1933 91.8991 61.86 92.3124 61.7C92.6324 61.58 92.9991 61.5267 93.4124 61.54C93.8258 61.54 94.1858 61.6 94.4924 61.72C94.7058 61.8 94.8458 61.9133 94.9124 62.06C94.9924 62.2067 95.0324 62.4133 95.0324 62.68C95.0324 63.04 95.0324 63.3867 95.0324 63.72ZM87.7924 78.5C87.6591 78.7 87.4858 78.82 87.2724 78.86C87.0058 78.9133 86.7458 78.9533 86.4924 78.98C86.2391 79.02 85.9858 79.0533 85.7324 79.08C85.4791 79.12 85.2124 79.1467 84.9324 79.16C84.6524 79.1867 84.3524 79.2067 84.0324 79.22C83.5658 79.2467 83.1991 79.14 82.9324 78.9C82.6791 78.66 82.5258 78.3133 82.4724 77.86C82.4458 77.62 82.4191 77.3133 82.3924 76.94C82.3658 76.5667 82.3391 76.1667 82.3124 75.74C82.2991 75.3133 82.2858 74.8867 82.2724 74.46C82.2591 74.0333 82.2524 73.6467 82.2524 73.3C82.2524 72.66 82.4724 72.28 82.9124 72.16C83.2058 72.08 83.4991 72.0333 83.7924 72.02C84.0991 71.9933 84.3724 71.9933 84.6124 72.02C84.9591 72.0467 85.1858 72.14 85.2924 72.3C85.4124 72.4467 85.4791 72.6933 85.4924 73.04C85.4924 73.2533 85.4924 73.5 85.4924 73.78C85.5058 74.0467 85.5124 74.32 85.5124 74.6C85.5258 74.88 85.5324 75.16 85.5324 75.44C85.5458 75.7067 85.5524 75.9533 85.5524 76.18C85.5524 76.3 85.6258 76.3867 85.7724 76.44C85.9191 76.5067 86.0458 76.54 86.1524 76.54C86.3258 76.54 86.4791 76.5333 86.6124 76.52C86.7591 76.52 86.9391 76.5067 87.1524 76.48C87.6458 76.44 87.9124 76.7867 87.9524 77.52C87.9791 77.9733 87.9258 78.3 87.7924 78.5ZM87.2124 67.8C87.1991 67.5733 87.1858 67.3133 87.1724 67.02C87.1724 66.7267 87.1658 66.42 87.1524 66.1C87.1391 65.78 87.1258 65.4533 87.1124 65.12C87.0991 64.7867 87.0858 64.4733 87.0724 64.18H83.4924C83.5058 64.5 83.5258 64.8533 83.5524 65.24C83.5791 65.6133 83.5991 65.9867 83.6124 66.36C83.6391 66.72 83.6591 67.0667 83.6724 67.4C83.6991 67.7333 83.7258 68.0133 83.7524 68.24C84.2991 68.2267 84.8124 68.22 85.2924 68.22C85.7724 68.2067 86.2858 68.1867 86.8324 68.16C86.9791 68.1467 87.0791 68.12 87.1324 68.08C87.1858 68.04 87.2124 67.9533 87.2124 67.82V67.8ZM91.6124 77.1C91.9724 77.0867 92.2524 76.9533 92.4524 76.7C92.6524 76.4467 92.7391 76.1067 92.7124 75.68C92.6858 75.32 92.5724 75.02 92.3724 74.78C92.1858 74.54 91.9124 74.4267 91.5524 74.44C91.1924 74.4533 90.9191 74.5867 90.7324 74.84C90.5458 75.08 90.4524 75.38 90.4524 75.74C90.4524 76.1667 90.5524 76.5 90.7524 76.74C90.9658 76.9933 91.2524 77.1133 91.6124 77.1ZM111.99 72.44C111.897 72.6933 111.723 72.8267 111.47 72.84C110.51 72.9067 109.443 72.9667 108.27 73.02C107.11 73.06 105.923 73.1 104.71 73.14C103.497 73.18 102.297 73.22 101.11 73.26C99.9367 73.2867 98.8567 73.3067 97.8701 73.32C97.7234 73.32 97.6034 73.28 97.5101 73.2C97.4301 73.12 97.3701 73.02 97.3301 72.9C97.2901 72.7667 97.2634 72.6333 97.2501 72.5C97.2367 72.3533 97.2301 72.22 97.2301 72.1C97.2301 71.9667 97.2367 71.8333 97.2501 71.7C97.2634 71.5533 97.2901 71.4267 97.3301 71.32C97.3834 71.2 97.4501 71.1 97.5301 71.02C97.6234 70.94 97.7434 70.9 97.8901 70.9C98.9434 70.86 100.057 70.82 101.23 70.78C102.417 70.74 103.603 70.7067 104.79 70.68C105.977 70.64 107.137 70.6133 108.27 70.6C109.417 70.5733 110.477 70.56 111.45 70.56C111.743 70.56 111.93 70.68 112.01 70.92C112.09 71.1467 112.13 71.3933 112.13 71.66C112.13 71.9267 112.083 72.1867 111.99 72.44ZM98.9301 76.76C98.9034 76.2933 98.8767 75.8 98.8501 75.28C98.8367 74.6533 99.0501 74.2733 99.4901 74.14C99.6234 74.1 99.7767 74.0733 99.9501 74.06C100.137 74.0333 100.317 74.0133 100.49 74C100.677 73.9867 100.85 73.98 101.01 73.98C101.17 73.98 101.31 73.9867 101.43 74C101.763 74.0267 101.99 74.12 102.11 74.28C102.23 74.4267 102.29 74.6733 102.29 75.02C102.29 75.1933 102.283 75.4067 102.27 75.66C102.27 75.9 102.277 76.0733 102.29 76.18C102.303 76.42 102.397 76.54 102.57 76.54C102.97 76.54 103.497 76.5333 104.15 76.52C104.817 76.52 105.503 76.5133 106.21 76.5C106.917 76.4867 107.597 76.4733 108.25 76.46C108.917 76.4467 109.45 76.44 109.85 76.44C110.33 76.44 110.59 76.7867 110.63 77.48C110.657 77.9333 110.603 78.26 110.47 78.46C110.337 78.6733 110.17 78.7933 109.97 78.82C109.503 78.8733 108.877 78.92 108.09 78.96C107.303 79 106.463 79.0333 105.57 79.06C104.677 79.1 103.777 79.1333 102.87 79.16C101.977 79.1867 101.19 79.2067 100.51 79.22C99.6167 79.2467 99.1167 78.7933 99.0101 77.86C98.9834 77.6067 98.9567 77.24 98.9301 76.76ZM109.71 67.1C109.47 67.66 109.11 68.1533 108.63 68.58C108.15 68.9933 107.543 69.3267 106.81 69.58C106.09 69.82 105.25 69.94 104.29 69.94C103.437 69.94 102.683 69.8267 102.03 69.6C101.377 69.36 100.83 69.0467 100.39 68.66C99.9501 68.26 99.6167 67.8 99.3901 67.28C99.1634 66.7467 99.0501 66.18 99.0501 65.58C99.0501 64.9933 99.1767 64.42 99.4301 63.86C99.6834 63.2867 100.057 62.78 100.55 62.34C101.043 61.8867 101.65 61.5267 102.37 61.26C103.103 60.98 103.943 60.84 104.89 60.84C105.663 60.84 106.363 60.9533 106.99 61.18C107.63 61.4067 108.177 61.72 108.63 62.12C109.083 62.5067 109.437 62.9733 109.69 63.52C109.943 64.0533 110.07 64.6333 110.07 65.26C110.07 65.9133 109.95 66.5267 109.71 67.1ZM104.57 67.4C105.303 67.3733 105.843 67.1667 106.19 66.78C106.55 66.38 106.723 65.88 106.71 65.28C106.697 64.64 106.49 64.1667 106.09 63.86C105.703 63.54 105.19 63.3867 104.55 63.4C103.87 63.4133 103.343 63.6067 102.97 63.98C102.597 64.3533 102.41 64.86 102.41 65.5C102.41 66.0733 102.59 66.54 102.95 66.9C103.323 67.26 103.863 67.4267 104.57 67.4ZM124.616 74.68C124.603 74.9467 124.583 75.24 124.556 75.56C124.543 75.8667 124.523 76.1667 124.496 76.46C124.483 76.7533 124.463 77.02 124.436 77.26C124.423 77.5133 124.41 77.72 124.396 77.88C124.356 78.1733 124.263 78.4 124.116 78.56C123.983 78.72 123.783 78.8467 123.516 78.94C123.436 78.9667 123.323 78.9867 123.176 79C123.043 79.0133 122.896 79.0133 122.736 79C122.576 79 122.416 78.9867 122.256 78.96C122.11 78.9333 121.99 78.9 121.896 78.86C121.723 78.7667 121.583 78.6333 121.476 78.46C121.37 78.2867 121.316 78.0667 121.316 77.8C121.316 77.68 121.316 77.5067 121.316 77.28C121.33 77.0667 121.336 76.82 121.336 76.54C121.35 76.26 121.363 75.9733 121.376 75.68C121.39 75.3733 121.403 75.08 121.416 74.8C121.163 74.8133 120.91 74.8267 120.656 74.84C120.403 74.84 120.143 74.84 119.876 74.84C119.503 74.84 119.21 74.74 118.996 74.54C118.783 74.3267 118.676 73.9867 118.676 73.52C118.663 73.08 118.756 72.74 118.956 72.5C119.17 72.26 119.45 72.1333 119.796 72.12C120.876 72.0667 121.916 72.02 122.916 71.98C123.93 71.9267 124.923 71.88 125.896 71.84C126.87 71.8 127.836 71.7733 128.796 71.76C129.77 71.7333 130.756 71.7133 131.756 71.7C132.05 71.7 132.276 71.8 132.436 72C132.61 72.2 132.703 72.4733 132.716 72.82C132.716 73.3133 132.603 73.6533 132.376 73.84C132.15 74.0133 131.89 74.1133 131.596 74.14C131.316 74.1667 131.036 74.1933 130.756 74.22C130.49 74.2467 130.216 74.2733 129.936 74.3C129.936 74.5667 129.93 74.8667 129.916 75.2C129.916 75.5333 129.91 75.8667 129.896 76.2C129.896 76.5333 129.89 76.84 129.876 77.12C129.876 77.4 129.87 77.6267 129.856 77.8C129.83 78.0933 129.75 78.32 129.616 78.48C129.496 78.6533 129.303 78.7933 129.036 78.9C128.956 78.9267 128.843 78.9467 128.696 78.96C128.563 78.9867 128.416 79 128.256 79C128.11 79.0133 127.956 79.0067 127.796 78.98C127.65 78.9667 127.53 78.94 127.436 78.9C127.263 78.82 127.116 78.6933 126.996 78.52C126.89 78.36 126.823 78.1467 126.796 77.88C126.783 77.7467 126.776 77.5533 126.776 77.3C126.776 77.0467 126.776 76.76 126.776 76.44C126.776 76.1333 126.776 75.8133 126.776 75.48C126.776 75.1467 126.776 74.84 126.776 74.56L124.616 74.68ZM132.116 68.74C132.116 69.1667 132.03 69.4667 131.856 69.64C131.696 69.8 131.51 69.8933 131.296 69.92C130.976 69.9733 130.556 70.0267 130.036 70.08C129.53 70.1333 128.97 70.1867 128.356 70.24C127.743 70.28 127.096 70.3267 126.416 70.38C125.75 70.42 125.09 70.46 124.436 70.5C123.796 70.5267 123.19 70.5533 122.616 70.58C122.043 70.5933 121.543 70.6 121.116 70.6C120.583 70.6 120.17 70.4733 119.876 70.22C119.596 69.9533 119.436 69.6067 119.396 69.18C119.29 68.1933 119.21 67.2267 119.156 66.28C119.116 65.3333 119.063 64.32 118.996 63.24C118.983 63.0267 118.99 62.8333 119.016 62.66C119.056 62.4867 119.143 62.34 119.276 62.22C119.41 62.1 119.596 62.0067 119.836 61.94C120.076 61.86 120.403 61.8 120.816 61.76C121.376 61.7067 121.81 61.7867 122.116 62C122.436 62.2133 122.603 62.5067 122.616 62.88C122.643 63.7333 122.663 64.5267 122.676 65.26C122.703 65.98 122.723 66.7133 122.736 67.46C122.736 67.6867 122.83 67.8 123.016 67.8C123.283 67.7867 123.63 67.7733 124.056 67.76C124.483 67.7467 124.95 67.7333 125.456 67.72C125.976 67.6933 126.51 67.6733 127.056 67.66C127.603 67.6333 128.13 67.6133 128.636 67.6C129.156 67.5733 129.636 67.5533 130.076 67.54C130.516 67.5267 130.883 67.52 131.176 67.52C131.416 67.52 131.63 67.5933 131.816 67.74C132.016 67.8867 132.116 68.22 132.116 68.74ZM134.317 76.98C134.104 76.78 133.997 76.4467 133.997 75.98C133.984 75.54 134.077 75.2 134.277 74.96C134.49 74.72 134.77 74.5933 135.117 74.58C136.197 74.5267 137.237 74.48 138.237 74.44C139.25 74.3867 140.244 74.34 141.217 74.3C142.19 74.26 143.157 74.2333 144.117 74.22C145.09 74.1933 146.077 74.1733 147.077 74.16C147.37 74.16 147.597 74.26 147.757 74.46C147.93 74.66 148.024 74.9333 148.037 75.28C148.037 75.7733 147.924 76.1067 147.697 76.28C147.47 76.4667 147.21 76.5733 146.917 76.6C144.97 76.8 143.044 76.9533 141.137 77.06C139.23 77.18 137.25 77.26 135.197 77.3C134.824 77.3 134.53 77.1933 134.317 76.98ZM142.017 64.84C141.99 65.3333 141.964 65.8733 141.937 66.46C142.377 66.6867 142.857 66.9467 143.377 67.24C143.897 67.52 144.424 67.8067 144.957 68.1C145.49 68.3933 145.997 68.68 146.477 68.96C146.957 69.24 147.377 69.4867 147.737 69.7C147.977 69.8467 148.144 70.1 148.237 70.46C148.344 70.82 148.264 71.2133 147.997 71.64C147.77 72.0267 147.47 72.2667 147.097 72.36C146.737 72.4533 146.39 72.4267 146.057 72.28C145.63 72.1067 145.177 71.9133 144.697 71.7C144.217 71.4733 143.724 71.2333 143.217 70.98C142.724 70.7267 142.224 70.4667 141.717 70.2C141.224 69.92 140.75 69.64 140.297 69.36C139.937 69.68 139.55 70.0067 139.137 70.34C138.737 70.6733 138.33 71 137.917 71.32C137.517 71.6267 137.117 71.92 136.717 72.2C136.317 72.4667 135.95 72.7 135.617 72.9C135.23 73.1267 134.864 73.22 134.517 73.18C134.17 73.1267 133.857 72.9333 133.577 72.6C133.31 72.2933 133.197 71.9667 133.237 71.62C133.277 71.2733 133.41 70.9933 133.637 70.78C134.33 70.14 135.07 69.4667 135.857 68.76C136.644 68.0533 137.39 67.3533 138.097 66.66C138.07 66.1533 138.044 65.6133 138.017 65.04C138.004 64.4533 137.99 63.9467 137.977 63.52C137.977 63.3067 137.997 63.1067 138.037 62.92C138.09 62.72 138.19 62.5533 138.337 62.42C138.484 62.2733 138.684 62.16 138.937 62.08C139.204 61.9867 139.537 61.9333 139.937 61.92C140.35 61.9067 140.69 61.9333 140.957 62C141.237 62.0533 141.457 62.1467 141.617 62.28C141.777 62.4 141.89 62.5533 141.957 62.74C142.024 62.9133 142.057 63.1067 142.057 63.32C142.057 63.8267 142.044 64.3333 142.017 64.84ZM158.968 64.08C158.968 65.9867 158.934 67.7733 158.868 69.44C158.814 71.1067 158.714 72.6667 158.568 74.12C158.528 74.5867 158.401 74.94 158.188 75.18C157.974 75.4067 157.568 75.52 156.968 75.52C156.408 75.52 156.028 75.4067 155.828 75.18C155.641 74.9533 155.541 74.6 155.528 74.12C155.514 73.3067 155.501 72.54 155.488 71.82C155.474 71.0867 155.468 70.3667 155.468 69.66C155.468 68.9533 155.468 68.24 155.468 67.52C155.481 66.8 155.494 66.04 155.508 65.24C154.548 65.24 153.594 65.24 152.648 65.24C151.701 65.2267 150.754 65.2067 149.808 65.18C149.581 65.1667 149.361 65.0533 149.148 64.84C148.934 64.6133 148.834 64.2333 148.848 63.7C148.861 63.26 148.941 62.9333 149.088 62.72C149.234 62.4933 149.501 62.3667 149.888 62.34C151.221 62.2733 152.474 62.2267 153.648 62.2C154.821 62.16 156.034 62.14 157.288 62.14C157.581 62.14 157.834 62.1467 158.048 62.16C158.261 62.16 158.434 62.1933 158.568 62.26C158.701 62.3133 158.801 62.4 158.868 62.52C158.934 62.64 158.968 62.8133 158.968 63.04V64.08ZM163.788 76.28C163.761 76.5733 163.654 76.8067 163.468 76.98C163.294 77.1667 163.094 77.3 162.868 77.38C162.721 77.4333 162.514 77.4533 162.248 77.44C161.981 77.4267 161.754 77.3867 161.568 77.32C161.394 77.2533 161.241 77.14 161.108 76.98C160.988 76.8333 160.928 76.6267 160.928 76.36C160.914 75.2 160.908 74.0667 160.908 72.96C160.908 71.8533 160.908 70.7533 160.908 69.66C160.921 68.5533 160.934 67.44 160.948 66.32C160.974 65.1867 161.001 64.0133 161.028 62.8C161.041 62.2667 161.248 61.9133 161.648 61.74C161.968 61.5933 162.334 61.5267 162.748 61.54C163.161 61.54 163.521 61.6133 163.828 61.76C164.041 61.8667 164.181 62 164.248 62.16C164.328 62.3067 164.368 62.5133 164.368 62.78C164.394 65.0067 164.361 67.26 164.268 69.54C164.174 71.8067 164.014 74.0533 163.788 76.28ZM172.375 72.3C172.055 72.0467 171.755 71.8 171.475 71.56C170.915 72.2533 170.375 72.8733 169.855 73.42C169.335 73.9533 168.795 74.4533 168.235 74.92C167.955 75.1467 167.621 75.2267 167.235 75.16C166.835 75.0933 166.501 74.9467 166.235 74.72C165.968 74.4933 165.801 74.2067 165.735 73.86C165.681 73.58 165.755 73.3067 165.955 73.04C166.355 72.52 166.861 71.8933 167.475 71.16C168.101 70.4267 168.735 69.66 169.375 68.86C169.308 67.9667 169.248 67.0467 169.195 66.1C169.155 65.1533 169.115 64.2067 169.075 63.26C169.048 62.8067 169.181 62.46 169.475 62.22C169.781 61.98 170.301 61.84 171.035 61.8C171.808 61.76 172.335 61.8467 172.615 62.06C172.908 62.2733 173.055 62.5533 173.055 62.9C173.055 63.26 173.055 63.7067 173.055 64.24C173.055 64.7733 173.048 65.32 173.035 65.88C173.035 66.4267 173.028 66.9467 173.015 67.44C173.015 67.9333 173.008 68.3133 172.995 68.58C173.288 68.8067 173.615 69.0667 173.975 69.36C174.348 69.64 174.715 69.9333 175.075 70.24C175.448 70.5333 175.801 70.8267 176.135 71.12C176.481 71.4133 176.781 71.6667 177.035 71.88C177.115 71.9467 177.175 72.02 177.215 72.1C177.255 72.18 177.268 72.2867 177.255 72.42C177.228 72.8333 177.081 73.22 176.815 73.58C176.548 73.9267 176.221 74.1533 175.835 74.26C175.675 74.3 175.495 74.28 175.295 74.2C175.015 74.0533 174.708 73.88 174.375 73.68C174.055 73.48 173.721 73.2667 173.375 73.04C173.041 72.8 172.708 72.5533 172.375 72.3ZM181.375 65.02C181.375 65.7533 181.361 66.5 181.335 67.26C181.521 67.26 181.695 67.26 181.855 67.26C182.015 67.26 182.161 67.2667 182.295 67.28C182.681 67.32 182.948 67.4533 183.095 67.68C183.255 67.8933 183.335 68.2067 183.335 68.62C183.335 69.1133 183.241 69.46 183.055 69.66C182.881 69.8467 182.635 69.9667 182.315 70.02C182.181 70.0467 182.021 70.0667 181.835 70.08C181.648 70.0933 181.448 70.1 181.235 70.1C181.181 71.14 181.121 72.18 181.055 73.22C180.988 74.2467 180.901 75.2667 180.795 76.28C180.768 76.5733 180.661 76.8067 180.475 76.98C180.301 77.1667 180.101 77.3 179.875 77.38C179.728 77.4333 179.521 77.4533 179.255 77.44C178.988 77.4267 178.761 77.3867 178.575 77.32C178.401 77.2533 178.248 77.14 178.115 76.98C177.995 76.8333 177.935 76.6267 177.935 76.36C177.921 75.2 177.915 74.0667 177.915 72.96C177.915 71.8533 177.915 70.7533 177.915 69.66C177.928 68.5533 177.941 67.44 177.955 66.32C177.981 65.1867 178.008 64.0133 178.035 62.8C178.048 62.2667 178.255 61.9133 178.655 61.74C178.975 61.5933 179.341 61.5267 179.755 61.54C180.168 61.54 180.528 61.6133 180.835 61.76C181.048 61.8667 181.188 62 181.255 62.16C181.335 62.3067 181.375 62.5133 181.375 62.78C181.375 63.5267 181.375 64.2733 181.375 65.02ZM188.572 77.26C189.892 77.26 191.199 77.2533 192.492 77.24C193.786 77.2267 195.086 77.22 196.392 77.22C196.659 77.22 196.832 77.2867 196.912 77.42C196.992 77.5533 197.032 77.76 197.032 78.04C197.032 78.12 197.026 78.22 197.012 78.34C197.012 78.4733 196.986 78.6067 196.932 78.74C196.892 78.8733 196.826 78.9867 196.732 79.08C196.652 79.1733 196.532 79.22 196.372 79.22C194.772 79.2467 193.186 79.2667 191.612 79.28C190.039 79.3067 188.466 79.3333 186.892 79.36C186.319 79.36 185.912 79.24 185.672 79C185.446 78.7733 185.319 78.4533 185.292 78.04C185.266 77.6267 185.239 77.2333 185.212 76.86C185.186 76.4867 185.172 76.0933 185.172 75.68C185.172 75.5067 185.199 75.38 185.252 75.3C185.306 75.22 185.406 75.1733 185.552 75.16C186.912 75.1067 188.266 75.0533 189.612 75C190.959 74.9467 192.319 74.8867 193.692 74.82C193.692 74.7 193.692 74.6067 193.692 74.54C193.706 74.4733 193.712 74.3733 193.712 74.24C192.326 74.2667 190.946 74.3 189.572 74.34C188.199 74.3667 186.819 74.3933 185.432 74.42C185.206 74.42 185.046 74.34 184.952 74.18C184.859 74.0067 184.812 73.7467 184.812 73.4C184.812 73.1867 184.839 72.9733 184.892 72.76C184.959 72.5467 185.132 72.4333 185.412 72.42C186.359 72.3933 187.286 72.3667 188.192 72.34C189.099 72.3 189.999 72.2667 190.892 72.24C191.786 72.2 192.686 72.1667 193.592 72.14C194.499 72.1 195.426 72.0667 196.372 72.04C196.692 72.04 196.852 72.2467 196.852 72.66C196.839 73.1667 196.819 73.6533 196.792 74.12C196.779 74.5867 196.752 75.0733 196.712 75.58C196.672 76.1933 196.366 76.5067 195.792 76.52L188.572 76.78V77.26ZM198.192 70.92C198.099 71.12 197.926 71.2267 197.672 71.24C196.712 71.3067 195.646 71.3667 194.472 71.42C193.312 71.46 192.126 71.5 190.912 71.54C189.699 71.58 188.499 71.62 187.312 71.66C186.139 71.6867 185.059 71.7067 184.072 71.72C183.926 71.72 183.806 71.6867 183.712 71.62C183.632 71.5533 183.572 71.4667 183.532 71.36C183.492 71.2533 183.466 71.14 183.452 71.02C183.439 70.8867 183.432 70.76 183.432 70.64C183.432 70.3733 183.466 70.14 183.532 69.94C183.599 69.74 183.786 69.6333 184.092 69.62C185.146 69.58 186.259 69.54 187.432 69.5C188.619 69.46 189.806 69.4267 190.992 69.4C192.179 69.36 193.339 69.3333 194.472 69.32C195.619 69.2933 196.679 69.28 197.652 69.28C197.946 69.28 198.132 69.3667 198.212 69.54C198.292 69.7133 198.332 69.9333 198.332 70.2C198.332 70.4667 198.286 70.7067 198.192 70.92ZM193.932 63.58C193.292 63.5933 192.566 63.6067 191.752 63.62C190.939 63.6333 190.119 63.6467 189.292 63.66C188.479 63.66 187.699 63.6667 186.952 63.68C186.206 63.68 185.586 63.68 185.092 63.68C184.932 63.68 184.792 63.68 184.672 63.68C184.552 63.6667 184.446 63.6267 184.352 63.56C184.272 63.48 184.212 63.3667 184.172 63.22C184.132 63.06 184.112 62.8333 184.112 62.54C184.112 62.26 184.132 62.04 184.172 61.88C184.226 61.7067 184.292 61.58 184.372 61.5C184.452 61.4067 184.546 61.3467 184.652 61.32C184.759 61.28 184.879 61.2533 185.012 61.24C185.519 61.2267 186.099 61.2133 186.752 61.2C187.406 61.1733 188.092 61.1533 188.812 61.14C189.546 61.1267 190.286 61.1133 191.032 61.1C191.792 61.0867 192.526 61.0733 193.232 61.06C193.952 61.0467 194.626 61.04 195.252 61.04C195.879 61.0267 196.432 61.02 196.912 61.02C197.046 61.02 197.152 61.0733 197.232 61.18C197.312 61.2733 197.352 61.3867 197.352 61.52C197.352 61.96 197.352 62.3067 197.352 62.56C197.352 62.8 197.346 63.0267 197.332 63.24C197.332 63.4533 197.332 63.6867 197.332 63.94C197.332 64.1933 197.332 64.5333 197.332 64.96C197.332 65.28 197.266 65.5333 197.132 65.72C196.999 65.8933 196.779 65.9867 196.472 66C195.832 66.0267 195.092 66.0533 194.252 66.08C193.412 66.1067 192.566 66.1333 191.712 66.16C190.859 66.1867 190.046 66.2133 189.272 66.24C188.499 66.2533 187.859 66.2667 187.352 66.28V66.48C187.352 66.6533 187.439 66.74 187.612 66.74C187.892 66.74 188.266 66.74 188.732 66.74C189.199 66.74 189.712 66.74 190.272 66.74C190.832 66.7267 191.412 66.72 192.012 66.72C192.626 66.72 193.212 66.72 193.772 66.72C194.332 66.72 194.846 66.72 195.312 66.72C195.779 66.72 196.152 66.72 196.432 66.72C196.579 66.72 196.706 66.72 196.812 66.72C196.919 66.72 197.006 66.7467 197.072 66.8C197.152 66.84 197.206 66.9133 197.232 67.02C197.272 67.1267 197.299 67.28 197.312 67.48C197.326 67.7067 197.312 67.8867 197.272 68.02C197.246 68.14 197.199 68.2333 197.132 68.3C197.066 68.3667 196.986 68.4133 196.892 68.44C196.799 68.4533 196.692 68.4667 196.572 68.48C196.212 68.5067 195.746 68.54 195.172 68.58C194.599 68.6067 193.979 68.6333 193.312 68.66C192.646 68.6867 191.946 68.7133 191.212 68.74C190.492 68.7533 189.799 68.7733 189.132 68.8C188.466 68.8133 187.846 68.8333 187.272 68.86C186.712 68.8733 186.259 68.88 185.912 68.88C184.912 68.8933 184.372 68.4267 184.292 67.48C184.266 67.2267 184.246 67.0267 184.232 66.88C184.219 66.72 184.206 66.5667 184.192 66.42C184.192 66.2733 184.186 66.1133 184.172 65.94C184.172 65.7533 184.172 65.5067 184.172 65.2C184.172 65.0133 184.219 64.86 184.312 64.74C184.419 64.6067 184.572 64.5333 184.772 64.52C185.292 64.5067 185.946 64.4867 186.732 64.46C187.519 64.4333 188.346 64.4067 189.212 64.38C190.079 64.34 190.932 64.3067 191.772 64.28C192.612 64.24 193.346 64.2067 193.972 64.18L193.932 63.58ZM211.479 62.52C212.052 62.4933 212.619 62.48 213.179 62.48C213.752 62.4667 214.312 62.4467 214.859 62.42C215.472 62.4067 215.799 62.8267 215.839 63.68C215.865 64.1733 215.785 64.5 215.599 64.66C215.425 64.8067 215.185 64.8933 214.879 64.92C214.852 64.92 214.785 64.9267 214.679 64.94C214.572 64.94 214.452 64.94 214.319 64.94C214.199 64.94 214.085 64.9467 213.979 64.96C213.872 64.96 213.805 64.96 213.779 64.96C213.965 65.0667 214.132 65.22 214.279 65.42C214.425 65.6067 214.552 65.8267 214.659 66.08C214.779 66.32 214.865 66.58 214.919 66.86C214.985 67.14 215.025 67.4133 215.039 67.68C215.052 68.2133 214.965 68.74 214.779 69.26C214.605 69.78 214.319 70.2533 213.919 70.68C213.519 71.0933 213.005 71.44 212.379 71.72C211.752 71.9867 210.999 72.14 210.119 72.18C209.279 72.22 208.545 72.1333 207.919 71.92C207.292 71.7067 206.765 71.4133 206.339 71.04C205.925 70.6667 205.612 70.2333 205.399 69.74C205.199 69.2467 205.099 68.74 205.099 68.22C205.099 67.98 205.125 67.7267 205.179 67.46C205.232 67.18 205.305 66.9133 205.399 66.66C205.492 66.4067 205.605 66.1733 205.739 65.96C205.872 65.7467 206.019 65.58 206.179 65.46L204.939 65.48C204.632 65.48 204.392 65.4133 204.219 65.28C204.045 65.1333 203.952 64.8067 203.939 64.3C203.925 63.8467 203.992 63.4933 204.139 63.24C204.285 62.9733 204.532 62.8267 204.879 62.8C205.345 62.7733 205.825 62.7533 206.319 62.74C206.812 62.7133 207.332 62.6867 207.879 62.66C207.865 62.46 207.852 62.2733 207.839 62.1C207.839 61.9267 207.839 61.7867 207.839 61.68C207.812 61.24 207.925 60.8933 208.179 60.64C208.445 60.3867 208.912 60.2333 209.579 60.18C210.312 60.1267 210.812 60.2 211.079 60.4C211.345 60.6 211.479 60.8933 211.479 61.28V62.52ZM219.639 64.08C219.652 64.6 219.659 65.1467 219.659 65.72C219.845 65.72 220.019 65.72 220.179 65.72C220.352 65.72 220.499 65.7267 220.619 65.74C221.005 65.78 221.272 65.9133 221.419 66.14C221.579 66.3533 221.659 66.6667 221.659 67.08C221.659 67.5733 221.565 67.92 221.379 68.12C221.205 68.3067 220.959 68.4267 220.639 68.48C220.519 68.5067 220.365 68.5267 220.179 68.54C220.005 68.5533 219.825 68.56 219.639 68.56C219.625 69.3067 219.605 70.0067 219.579 70.66C219.565 71.3 219.545 71.84 219.519 72.28C219.492 72.5733 219.412 72.8067 219.279 72.98C219.159 73.14 218.965 73.2733 218.699 73.38C218.619 73.4067 218.505 73.4333 218.359 73.46C218.212 73.4733 218.052 73.4867 217.879 73.5C217.705 73.5 217.539 73.4933 217.379 73.48C217.219 73.4533 217.092 73.42 216.999 73.38C216.825 73.3 216.672 73.18 216.539 73.02C216.419 72.8467 216.359 72.6267 216.359 72.36C216.345 71.8 216.332 71.1067 216.319 70.28C216.319 69.4533 216.312 68.5867 216.299 67.68C216.285 66.7733 216.279 65.8867 216.279 65.02C216.279 64.14 216.285 63.3667 216.299 62.7C216.299 62.1933 216.505 61.86 216.919 61.7C217.239 61.58 217.605 61.5267 218.019 61.54C218.432 61.54 218.792 61.6 219.099 61.72C219.312 61.8 219.452 61.9133 219.519 62.06C219.599 62.2067 219.639 62.4133 219.639 62.68C219.639 63.08 219.639 63.5467 219.639 64.08ZM219.499 78.46C219.365 78.6733 219.192 78.7933 218.979 78.82C218.499 78.8733 217.885 78.92 217.139 78.96C216.392 79 215.592 79.0333 214.739 79.06C213.899 79.1 213.045 79.1333 212.179 79.16C211.312 79.1867 210.532 79.2067 209.839 79.22C208.905 79.2467 208.385 78.7933 208.279 77.86C208.225 77.3933 208.172 76.8667 208.119 76.28C208.079 75.6933 208.059 75.06 208.059 74.38C208.059 73.74 208.279 73.36 208.719 73.24C209.012 73.16 209.359 73.1133 209.759 73.1C210.159 73.0733 210.479 73.0733 210.719 73.1C211.065 73.1267 211.292 73.22 211.399 73.38C211.519 73.5267 211.585 73.7733 211.599 74.12C211.599 74.3333 211.599 74.52 211.599 74.68C211.612 74.84 211.619 74.9933 211.619 75.14C211.632 75.2867 211.639 75.44 211.639 75.6C211.652 75.76 211.659 75.9533 211.659 76.18C211.659 76.42 211.759 76.54 211.959 76.54C212.372 76.54 212.885 76.5333 213.499 76.52C214.112 76.52 214.745 76.5133 215.399 76.5C216.065 76.4867 216.705 76.4733 217.319 76.46C217.932 76.4467 218.445 76.44 218.859 76.44C219.352 76.44 219.619 76.7867 219.659 77.48C219.685 77.9333 219.632 78.26 219.499 78.46ZM210.079 69.84C210.705 69.8133 211.179 69.58 211.499 69.14C211.832 68.7 211.972 68.1133 211.919 67.38C211.865 66.6733 211.672 66.1467 211.339 65.8C211.005 65.44 210.579 65.2733 210.059 65.3C209.485 65.3267 209.032 65.56 208.699 66C208.365 66.44 208.205 67 208.219 67.68C208.232 68.32 208.399 68.8467 208.719 69.26C209.039 69.6733 209.492 69.8667 210.079 69.84ZM235.296 67.44C235.296 67.8667 235.21 68.1667 235.036 68.34C234.876 68.5 234.696 68.5933 234.496 68.62C234.19 68.6733 233.783 68.7267 233.276 68.78C232.783 68.8333 232.236 68.8867 231.636 68.94C231.036 68.98 230.403 69.0267 229.736 69.08C229.083 69.12 228.436 69.16 227.796 69.2C227.17 69.2267 226.576 69.2533 226.016 69.28C225.456 69.2933 224.97 69.3 224.556 69.3C224.05 69.3 223.663 69.1733 223.396 68.92C223.13 68.6533 222.963 68.3067 222.896 67.88C222.856 67.6 222.816 67.2733 222.776 66.9C222.75 66.5267 222.723 66.1267 222.696 65.7C222.67 65.26 222.643 64.8133 222.616 64.36C222.59 63.8933 222.57 63.4267 222.556 62.96C222.543 62.7467 222.55 62.5533 222.576 62.38C222.616 62.2067 222.696 62.06 222.816 61.94C222.95 61.82 223.136 61.7267 223.376 61.66C223.616 61.58 223.936 61.52 224.336 61.48C224.883 61.4267 225.303 61.5067 225.596 61.72C225.903 61.9333 226.063 62.2267 226.076 62.6C226.09 63.0267 226.096 63.3867 226.096 63.68C226.11 63.96 226.123 64.2267 226.136 64.48C226.15 64.72 226.156 64.9667 226.156 65.22C226.17 65.4733 226.176 65.7867 226.176 66.16C226.176 66.3867 226.263 66.5 226.436 66.5C226.836 66.4867 227.39 66.4667 228.096 66.44C228.816 66.4133 229.57 66.3867 230.356 66.36C231.156 66.32 231.916 66.2867 232.636 66.26C233.37 66.2333 233.95 66.22 234.376 66.22C234.603 66.22 234.81 66.2933 234.996 66.44C235.196 66.5867 235.296 66.92 235.296 67.44ZM233.756 72.46C232.943 72.5 232.096 72.54 231.216 72.58C231.203 72.9 231.19 73.22 231.176 73.54C231.176 73.86 231.163 74.1533 231.136 74.42C231.096 74.9667 230.83 75.3333 230.336 75.52C230.27 75.5467 230.163 75.5733 230.016 75.6C229.87 75.6133 229.71 75.6267 229.536 75.64C229.376 75.64 229.216 75.6333 229.056 75.62C228.91 75.5933 228.79 75.56 228.696 75.52C228.323 75.3467 228.116 75.0067 228.076 74.5C228.05 74.2733 228.036 74 228.036 73.68C228.05 73.36 228.056 73.0267 228.056 72.68C227.056 72.7067 226.076 72.7333 225.116 72.76C224.17 72.7733 223.29 72.7867 222.476 72.8C222.33 72.8 222.21 72.76 222.116 72.68C222.036 72.6 221.976 72.5 221.936 72.38C221.896 72.2467 221.87 72.1133 221.856 71.98C221.843 71.8333 221.836 71.7 221.836 71.58C221.836 71.4467 221.843 71.3133 221.856 71.18C221.87 71.0333 221.896 70.9067 221.936 70.8C221.99 70.68 222.056 70.58 222.136 70.5C222.23 70.42 222.35 70.38 222.496 70.38C223.55 70.34 224.663 70.3 225.836 70.26C227.023 70.22 228.21 70.1867 229.396 70.16C230.583 70.12 231.743 70.0933 232.876 70.08C234.023 70.0533 235.083 70.04 236.056 70.04C236.35 70.04 236.536 70.16 236.616 70.4C236.696 70.6267 236.736 70.8733 236.736 71.14C236.736 71.4067 236.69 71.6667 236.596 71.92C236.503 72.1733 236.33 72.3067 236.076 72.32C235.356 72.3733 234.583 72.42 233.756 72.46ZM235.076 78.46C234.943 78.6733 234.776 78.7933 234.576 78.82C234.11 78.8733 233.483 78.92 232.696 78.96C231.91 79 231.07 79.0333 230.176 79.06C229.283 79.1 228.383 79.1333 227.476 79.16C226.583 79.1867 225.796 79.2067 225.116 79.22C224.223 79.2467 223.723 78.7933 223.616 77.86C223.603 77.74 223.59 77.56 223.576 77.32C223.563 77.0933 223.55 76.84 223.536 76.56C223.523 76.2933 223.51 76.0133 223.496 75.72C223.483 75.4267 223.47 75.1467 223.456 74.88C223.443 74.2533 223.656 73.8733 224.096 73.74C224.23 73.7 224.383 73.6733 224.556 73.66C224.743 73.6333 224.923 73.6133 225.096 73.6C225.283 73.5867 225.456 73.58 225.616 73.58C225.776 73.58 225.916 73.5867 226.036 73.6C226.37 73.6267 226.596 73.72 226.716 73.88C226.836 74.0267 226.896 74.2733 226.896 74.62C226.896 74.7 226.896 74.82 226.896 74.98C226.896 75.14 226.896 75.3 226.896 75.46C226.896 75.62 226.896 75.7667 226.896 75.9C226.896 76.0333 226.896 76.1267 226.896 76.18C226.91 76.42 227.003 76.54 227.176 76.54C227.576 76.54 228.103 76.5333 228.756 76.52C229.423 76.52 230.11 76.5133 230.816 76.5C231.523 76.4867 232.203 76.4733 232.856 76.46C233.523 76.4467 234.056 76.44 234.456 76.44C234.936 76.44 235.196 76.7867 235.236 77.48C235.263 77.9333 235.21 78.26 235.076 78.46ZM248.27 72.7C248.256 71.6733 248.243 70.64 248.23 69.6C248.07 69.6133 247.896 69.62 247.71 69.62C247.536 69.62 247.356 69.62 247.17 69.62C246.956 70.7933 246.456 71.72 245.67 72.4C244.896 73.0667 243.85 73.4 242.53 73.4C240.943 73.4 239.756 72.9733 238.97 72.12C238.183 71.2533 237.79 69.98 237.79 68.3C237.79 67.6067 237.89 66.94 238.09 66.3C238.29 65.66 238.596 65.1 239.01 64.62C239.423 64.1267 239.943 63.74 240.57 63.46C241.21 63.1667 241.956 63.02 242.81 63.02C243.436 63.02 243.99 63.1133 244.47 63.3C244.963 63.4867 245.39 63.7467 245.75 64.08C246.11 64.4133 246.403 64.8133 246.63 65.28C246.87 65.7333 247.043 66.2333 247.15 66.78C247.336 66.78 247.523 66.78 247.71 66.78C247.896 66.7667 248.063 66.7667 248.21 66.78C248.21 66.1 248.21 65.4333 248.21 64.78C248.223 64.1133 248.236 63.44 248.25 62.76C248.25 62.4 248.35 62.1133 248.55 61.9C248.75 61.6867 249.143 61.5733 249.73 61.56C250.316 61.5467 250.723 61.64 250.95 61.84C251.176 62.04 251.29 62.3067 251.29 62.64C251.29 63.8267 251.29 64.96 251.29 66.04C251.303 67.12 251.303 68.1867 251.29 69.24C251.276 70.2933 251.25 71.3667 251.21 72.46C251.17 73.54 251.116 74.68 251.05 75.88C251.023 76.28 250.87 76.5933 250.59 76.82C250.323 77.0467 249.97 77.1467 249.53 77.12C249.116 77.0933 248.823 76.9667 248.65 76.74C248.476 76.5133 248.383 76.18 248.37 75.74C248.33 74.7267 248.296 73.7133 248.27 72.7ZM254.85 61.86C255.076 62.0867 255.183 62.3533 255.17 62.66C255.17 63.8467 255.163 65 255.15 66.12C255.136 67.2267 255.11 68.3267 255.07 69.42C255.03 70.5133 254.97 71.62 254.89 72.74C254.823 73.86 254.73 75.0267 254.61 76.24C254.583 76.6267 254.436 76.9333 254.17 77.16C253.916 77.3867 253.57 77.4867 253.13 77.46C252.73 77.4333 252.443 77.3067 252.27 77.08C252.096 76.8667 252.003 76.54 251.99 76.1C251.963 74.8067 251.95 73.6133 251.95 72.52C251.963 71.4267 251.976 70.36 251.99 69.32C252.003 68.2667 252.016 67.2067 252.03 66.14C252.056 65.06 252.083 63.9 252.11 62.66C252.11 62.3133 252.21 62.04 252.41 61.84C252.61 61.6267 252.996 61.52 253.57 61.52C254.196 61.52 254.623 61.6333 254.85 61.86ZM242.49 70.78C243.09 70.7667 243.543 70.52 243.85 70.04C244.156 69.56 244.31 68.98 244.31 68.3C244.31 67.54 244.163 66.9267 243.87 66.46C243.576 65.98 243.17 65.74 242.65 65.74C242.33 65.74 242.05 65.8133 241.81 65.96C241.57 66.0933 241.376 66.28 241.23 66.52C241.083 66.76 240.97 67.04 240.89 67.36C240.823 67.6667 240.79 67.9933 240.79 68.34C240.79 69.1 240.93 69.7 241.21 70.14C241.503 70.5667 241.93 70.78 242.49 70.78Z" fill="#3F51B5"/>
</svg>
