<svg width="24" height="25" viewBox="0 0 24 25" fill="none" xmlns="http://www.w3.org/2000/svg">
<path d="M11.9425 1.75H12.0573C14.3657 1.74999 16.1747 1.74998 17.5862 1.93975C19.0309 2.13399 20.171 2.53933 21.0658 3.43414C21.9606 4.32895 22.3659 5.46897 22.5602 6.91371C22.7499 8.32519 22.7499 10.1342 22.7499 12.4426V12.5574C22.7499 14.8658 22.7499 16.6748 22.5602 18.0863C22.3659 19.531 21.9606 20.6711 21.0658 21.5659C20.2374 22.3943 19.198 22.8038 17.8993 23.014C16.6225 23.2207 15.0164 23.2458 13.0013 23.2494C12.5871 23.2502 12.2507 22.915 12.2499 22.5008C12.2492 22.0866 12.5843 21.7502 12.9986 21.7494C15.0385 21.7457 16.5216 21.7175 17.6596 21.5333C18.7756 21.3526 19.4765 21.0338 20.0051 20.5052C20.5748 19.9355 20.9017 19.1648 21.0735 17.8864C21.2483 16.5864 21.2499 14.8782 21.2499 12.5C21.2499 10.1218 21.2483 8.41356 21.0735 7.11358C20.9017 5.83517 20.5748 5.06445 20.0051 4.4948C19.4355 3.92514 18.6647 3.59825 17.3863 3.42637C16.0864 3.25159 14.3781 3.25 11.9999 3.25C9.62169 3.25 7.91347 3.25159 6.61349 3.42637C5.33509 3.59825 4.56437 3.92514 3.99471 4.4948C3.46609 5.02341 3.1473 5.72427 2.96665 6.84031C2.78246 7.97827 2.75416 9.46143 2.75049 11.5014C2.74974 11.9156 2.41335 12.2507 1.99914 12.25C1.58493 12.2493 1.24975 11.9129 1.25049 11.4986C1.25412 9.4835 1.27926 7.87741 1.48592 6.60063C1.69614 5.30193 2.10563 4.26255 2.93405 3.43414C3.82886 2.53933 4.96888 2.13399 6.41362 1.93975C7.82511 1.74998 9.63414 1.74999 11.9425 1.75Z" fill="#37474F"/>
<path d="M12.5 7.5C12.5 7.08579 12.8358 6.75 13.25 6.75H17C17.4142 6.75 17.75 7.08579 17.75 7.5V11.25C17.75 11.6642 17.4142 12 17 12C16.5858 12 16.25 11.6642 16.25 11.25V9.31066L12.5303 13.0303C12.2374 13.3232 11.7626 13.3232 11.4697 13.0303C11.1768 12.7374 11.1768 12.2626 11.4697 11.9697L15.1893 8.25H13.25C12.8358 8.25 12.5 7.91421 12.5 7.5Z" fill="#37474F"/>
<path fill-rule="evenodd" clip-rule="evenodd" d="M5.948 13.75C5.04952 13.75 4.3003 13.7499 3.70552 13.8299C3.07773 13.9143 2.51093 14.1 2.05546 14.5555C1.59999 15.0109 1.41432 15.5777 1.32991 16.2055C1.24995 16.8003 1.24997 17.5495 1.25 18.448V18.552C1.24997 19.4505 1.24995 20.1997 1.32991 20.7945C1.41432 21.4223 1.59999 21.9891 2.05546 22.4445C2.51093 22.9 3.07773 23.0857 3.70552 23.1701C4.3003 23.2501 5.04951 23.25 5.94798 23.25H6.052C6.95047 23.25 7.69971 23.2501 8.29448 23.1701C8.92228 23.0857 9.48908 22.9 9.94455 22.4445C10.4 21.9891 10.5857 21.4223 10.6701 20.7945C10.7501 20.1997 10.75 19.4505 10.75 18.552V18.448C10.75 17.5495 10.7501 16.8003 10.6701 16.2055C10.5857 15.5777 10.4 15.0109 9.94455 14.5555C9.48908 14.1 8.92228 13.9143 8.29448 13.8299C7.6997 13.7499 6.95048 13.75 6.052 13.75H5.948ZM3.11612 15.6161C3.24644 15.4858 3.44393 15.3786 3.9054 15.3165C4.38843 15.2516 5.03599 15.25 6 15.25C6.96401 15.25 7.61157 15.2516 8.09461 15.3165C8.55607 15.3786 8.75357 15.4858 8.88389 15.6161C9.0142 15.7464 9.12143 15.9439 9.18347 16.4054C9.24841 16.8884 9.25 17.536 9.25 18.5C9.25 19.464 9.24841 20.1116 9.18347 20.5946C9.12143 21.0561 9.0142 21.2536 8.88389 21.3839C8.75357 21.5142 8.55607 21.6214 8.09461 21.6835C7.61157 21.7484 6.96401 21.75 6 21.75C5.03599 21.75 4.38843 21.7484 3.9054 21.6835C3.44393 21.6214 3.24644 21.5142 3.11612 21.3839C2.9858 21.2536 2.87858 21.0561 2.81654 20.5946C2.7516 20.1116 2.75 19.464 2.75 18.5C2.75 17.536 2.7516 16.8884 2.81654 16.4054C2.87858 15.9439 2.9858 15.7464 3.11612 15.6161Z" fill="#37474F"/>
</svg>
