<svg width="90" height="64" viewBox="0 0 90 64" fill="none" xmlns="http://www.w3.org/2000/svg">
<path d="M42 37.25C41.5858 37.25 41.25 37.5858 41.25 38C41.25 38.4142 41.5858 38.75 42 38.75H48C48.4142 38.75 48.75 38.4142 48.75 38C48.75 37.5858 48.4142 37.25 48 37.25H42Z" fill="#343E4C"/>
<path fill-rule="evenodd" clip-rule="evenodd" d="M45 21.25C44.2919 21.25 43.6485 21.4528 42.9506 21.7922C42.2758 22.1203 41.4964 22.6041 40.5229 23.2083L38.4563 24.4909C37.5351 25.0626 36.7974 25.5204 36.2289 25.9558C35.6401 26.4067 35.1879 26.8659 34.8613 27.4626C34.5354 28.0581 34.3886 28.6917 34.3182 29.4407C34.25 30.1665 34.25 31.0541 34.25 32.1672V33.7799C34.25 35.6837 34.25 37.1866 34.4027 38.3616C34.5594 39.567 34.8886 40.5401 35.6324 41.3094C36.3796 42.0824 37.3305 42.4277 38.5076 42.5914C39.6485 42.75 41.1056 42.75 42.9418 42.75H47.0581C48.8944 42.75 50.3515 42.75 51.4924 42.5914C52.6695 42.4277 53.6204 42.0824 54.3676 41.3094C55.1114 40.5401 55.4406 39.567 55.5973 38.3616C55.75 37.1866 55.75 35.6838 55.75 33.7799V32.1672C55.75 31.0541 55.75 30.1665 55.6818 29.4407C55.6114 28.6917 55.4646 28.0581 55.1387 27.4626C54.8121 26.8659 54.3599 26.4067 53.7711 25.9558C53.2026 25.5204 52.4649 25.0626 51.5437 24.4909L49.4771 23.2083C48.5036 22.6041 47.7241 22.1203 47.0494 21.7922C46.3515 21.4528 45.7081 21.25 45 21.25ZM41.2795 24.5041C42.2953 23.8737 43.0095 23.4315 43.6065 23.1412C44.1882 22.8583 44.6002 22.75 45 22.75C45.3998 22.75 45.8118 22.8583 46.3935 23.1412C46.9905 23.4315 47.7047 23.8737 48.7205 24.5041L50.7205 25.7454C51.6813 26.3417 52.3559 26.7613 52.8591 27.1467C53.3487 27.5216 53.6303 27.8311 53.8229 28.1829C54.0162 28.5359 54.129 28.9487 54.1884 29.581C54.2492 30.2286 54.25 31.0458 54.25 32.2039V33.725C54.25 35.6959 54.2485 37.1012 54.1098 38.1683C53.9736 39.2163 53.717 39.8244 53.2892 40.2669C52.8649 40.7058 52.2871 40.9664 51.2858 41.1057C50.2602 41.2483 48.9075 41.25 47 41.25H43C41.0925 41.25 39.7398 41.2483 38.7142 41.1057C37.7129 40.9664 37.1351 40.7058 36.7108 40.2669C36.283 39.8244 36.0264 39.2163 35.8902 38.1683C35.7515 37.1012 35.75 35.6959 35.75 33.725V32.2039C35.75 31.0458 35.7508 30.2286 35.8116 29.581C35.871 28.9487 35.9838 28.5359 36.1771 28.1829C36.3697 27.8311 36.6513 27.5216 37.1409 27.1467C37.6441 26.7613 38.3187 26.3417 39.2795 25.7454L41.2795 24.5041Z" fill="#343E4C"/>
</svg>
