<svg width="88" height="40" viewBox="0 0 88 40" fill="none" xmlns="http://www.w3.org/2000/svg">
<path d="M11.9132 24.9112C12.6031 26.0708 13.2211 27.0612 13.755 27.8946V21.2515C13.755 20.0919 13.755 18.9867 13.755 17.948C13.755 16.9092 13.785 16.0335 13.827 15.339C13.8305 14.8766 13.982 14.4276 14.259 14.0587C14.529 13.7145 15.1109 13.5393 16.0168 13.5393C16.4217 13.5282 16.826 13.5771 17.2168 13.6843C17.4769 13.7559 17.7185 13.8837 17.9247 14.0587C18.0856 14.211 18.1965 14.409 18.2427 14.6264C18.2909 14.8506 18.3151 15.0794 18.3147 15.3088C18.3147 16.6818 18.2987 18.1936 18.2667 19.8443C18.2667 21.4991 18.1947 23.1538 18.1407 24.8146C18.0867 26.4754 18.0147 28.0637 17.9367 29.5675C17.8587 31.0713 17.7987 32.3757 17.7327 33.4024C17.715 33.6715 17.6418 33.934 17.5179 34.1731C17.3939 34.4123 17.2219 34.6228 17.0128 34.7914C16.5105 35.1555 15.9037 35.3443 15.2849 35.3289C14.8465 35.3744 14.4048 35.2838 14.019 35.0693C13.6647 34.8097 13.353 34.4958 13.0951 34.1392C12.6751 33.5353 12.1531 32.7683 11.5412 31.7597C10.9292 30.7512 10.2753 29.6702 9.57934 28.4986C8.8834 27.3269 8.19945 26.1251 7.5215 24.9112C6.84355 23.6974 6.2316 22.5922 5.72164 21.6017C5.68564 22.5137 5.64964 23.5283 5.60765 24.6214C5.56565 25.7145 5.52965 26.8559 5.48166 27.955C5.43366 29.0542 5.37966 30.0869 5.31967 31.0471C5.25967 32.0074 5.19368 32.7804 5.12168 33.3783C5.06139 33.8996 4.85309 34.3923 4.52173 34.7975C4.31906 34.9982 4.07203 35.1477 3.8009 35.2338C3.52977 35.3198 3.24223 35.34 2.96185 35.2927C2.69778 35.3028 2.43486 35.2526 2.19277 35.146C1.95069 35.0393 1.73572 34.8789 1.56396 34.6767C1.26465 34.2318 1.0981 33.71 1.08399 33.1729C1.03 31.7718 1 30.2681 1 28.6314C1 26.9948 1 25.3581 1.03 23.7034C1.06 22.0486 1.07799 20.4603 1.11399 18.9203C1.14999 17.3803 1.19199 16.0215 1.22798 14.8197C1.23172 14.6338 1.27487 14.4509 1.35454 14.2832C1.43421 14.1155 1.54857 13.9669 1.68995 13.8473C2.1299 13.6062 2.63081 13.5011 3.12984 13.5454C3.69594 13.5317 4.2617 13.5844 4.81571 13.7024C5.03181 13.7651 5.23332 13.8706 5.40844 14.0127C5.58357 14.1548 5.72879 14.3305 5.83563 14.5298C6.39959 15.4659 6.99954 16.4865 7.70749 17.6762L9.82532 21.2998L11.9132 24.9112Z" fill="#3F51B5"/>
<path d="M34.4294 25.3944C33.4935 26.3647 32.5716 27.3088 31.6637 28.2268C31.8796 28.4442 32.0716 28.6435 32.2636 28.8307L32.7436 29.332C32.8996 29.489 33.0555 29.6581 33.2175 29.8332C33.3795 30.0084 33.5715 30.2077 33.8175 30.4372C34.1655 30.7874 34.5674 30.7452 35.0174 30.2922L36.3493 28.9515C36.8293 28.4623 37.3212 27.9671 37.8132 27.4538L39.2711 25.944L40.597 24.5912C41.0829 24.102 41.7249 24.2107 42.5108 24.9233C42.9278 25.2392 43.2361 25.6784 43.3928 26.1795C43.4321 26.3634 43.4298 26.5538 43.3862 26.7368C43.3426 26.9197 43.2587 27.0904 43.1408 27.2364C42.6368 27.8765 42.0729 28.5771 41.4489 29.3259C40.825 30.0748 40.201 30.8116 39.565 31.5303C38.9291 32.2489 38.3651 32.9193 37.7652 33.5534C37.1652 34.1875 36.7153 34.6888 36.3193 35.0874C36.0648 35.3817 35.749 35.616 35.3944 35.7736C35.0398 35.9312 34.655 36.0083 34.2675 35.9993C33.4785 35.9281 32.7425 35.5695 32.1976 34.9907C31.4537 34.2902 30.5677 33.4387 29.5398 32.4361C28.5139 31.4336 27.452 30.3707 26.3421 29.2595C25.2321 28.1483 24.1402 27.0189 23.0543 25.8896C21.9684 24.7603 20.9965 23.7155 20.1445 22.7733C19.7906 22.3627 19.7426 22.0124 20.0005 21.7286C21.3004 20.2791 22.7183 18.7552 24.2542 17.1568C25.7901 15.5585 27.304 14.0486 28.7959 12.6274C28.919 12.4945 29.0703 12.3912 29.2386 12.3253C29.4069 12.2595 29.5878 12.2327 29.7678 12.2469C30.2364 12.3828 30.6541 12.6561 30.9677 13.032C31.3894 13.4002 31.6975 13.8822 31.8556 14.4211C31.8958 14.6034 31.8934 14.7927 31.8487 14.974C31.8039 15.1553 31.718 15.3237 31.5977 15.4659C30.6497 16.5046 29.6718 17.5615 28.6759 18.6485L25.7781 21.8071L27.344 23.4679L28.9159 25.1287L30.3078 23.8061L31.8436 22.3385L33.3315 20.9012C33.8055 20.4543 34.2135 20.0678 34.5314 19.7537C34.6537 19.6464 34.8 19.5705 34.9578 19.5326C35.1156 19.4948 35.2802 19.496 35.4374 19.5363C35.8882 19.6685 36.2894 19.9335 36.5893 20.2973C37.4592 21.1669 37.6332 21.8916 37.1232 22.4653C36.2653 23.4135 35.3714 24.3979 34.4294 25.3944Z" fill="#8C9EFF"/>
<path d="M66.245 31.9228C66.053 32.8106 65.873 33.5594 65.699 34.1573C65.5915 34.4062 65.4458 34.6365 65.2671 34.8398C65.1075 35.0407 64.882 35.1777 64.6311 35.2263C64.3611 35.2686 64.0312 35.2987 63.7132 35.3289C63.3952 35.3591 63.0112 35.3712 62.6453 35.3712C62.2793 35.3712 61.9253 35.3712 61.5834 35.3712C61.2729 35.3539 60.964 35.3136 60.6594 35.2504C60.3893 35.2225 60.1412 35.0878 59.9695 34.876C59.8057 34.6876 59.6958 34.458 59.6515 34.2117C59.4755 33.4749 59.2595 32.6052 59.0036 31.6027C58.7476 30.6002 58.4876 29.5373 58.2236 28.414C57.9676 27.2907 57.7277 26.1594 57.5037 25.0199C57.2817 23.8785 57.1077 22.7975 56.9697 21.7708C56.8217 22.7975 56.6357 23.8846 56.4118 25.032C56.1878 26.1795 55.9578 27.3149 55.7218 28.4382C55.4818 29.5615 55.2359 30.6244 54.9839 31.6269C54.7379 32.6354 54.5039 33.493 54.2939 34.2117C54.2319 34.4245 54.141 34.6277 54.0239 34.8156C53.9274 34.9915 53.7656 35.1217 53.574 35.178C53.2409 35.2411 52.9043 35.2835 52.566 35.3048C52.1821 35.3048 51.7921 35.3531 51.3661 35.3531C50.9402 35.3531 50.5742 35.3531 50.1662 35.3229C49.7583 35.2927 49.4463 35.2746 49.1583 35.2323C49.0333 35.219 48.9124 35.1799 48.803 35.1176C48.6936 35.0553 48.5981 34.971 48.5224 34.87C48.3828 34.665 48.2887 34.4323 48.2464 34.1875C47.9744 33.0884 47.6624 31.7457 47.3105 30.1593C46.9585 28.573 46.6085 26.9203 46.2605 25.2011C45.9126 23.486 45.5826 21.7769 45.2646 20.0859C44.9466 18.3949 44.6647 16.8911 44.5027 15.5806C44.4764 15.3862 44.4924 15.1883 44.5493 15.0007C44.6063 14.813 44.7029 14.64 44.8326 14.4935C45.281 14.0725 45.8544 13.8115 46.4645 13.7507C46.7105 13.7145 46.9685 13.6662 47.2265 13.6058C47.4666 13.5528 47.7131 13.5345 47.9584 13.5514C48.1754 13.5717 48.3828 13.651 48.5584 13.7809C48.7735 13.9696 48.921 14.2243 48.9783 14.5056C49.2063 15.6652 49.4403 16.8911 49.6683 18.1896C49.8963 19.488 50.1242 20.8046 50.3462 22.1453C50.5682 23.486 50.7662 24.8146 50.9462 26.1312C51.1262 27.4477 51.2941 28.6918 51.4501 29.8695C51.9301 27.3732 52.4681 24.8327 53.064 22.2479C53.66 19.6631 54.2039 17.1387 54.6959 14.6747C54.7342 14.5129 54.7823 14.3535 54.8399 14.1976C54.906 14.0466 55.0172 13.92 55.1578 13.8353C55.3644 13.7215 55.5903 13.6478 55.8238 13.6179C56.2033 13.5634 56.5864 13.5391 56.9697 13.5454C57.3466 13.5394 57.7235 13.5596 58.0976 13.6058C58.3275 13.625 58.5515 13.6886 58.7576 13.793C58.9028 13.8672 59.019 13.9885 59.0876 14.1372C59.1616 14.3096 59.216 14.4899 59.2495 14.6747C59.4415 15.8343 59.6695 17.0904 59.9395 18.413C60.2095 19.7356 60.4854 21.0944 60.7734 22.4472C61.0614 23.8 61.3734 25.1347 61.6374 26.4573C61.9013 27.7799 62.1833 29.024 62.4173 30.1835C62.5913 29.0058 62.7833 27.7678 63.0173 26.4029C63.2512 25.0381 63.4672 23.7034 63.7072 22.3264C63.9472 20.9495 64.1812 19.6027 64.4031 18.2681C64.6251 16.9334 64.8051 15.6893 64.9611 14.5298C64.9961 14.2663 65.1238 14.0242 65.3211 13.8473C65.5054 13.7038 65.7254 13.6139 65.957 13.5877C66.2098 13.5518 66.4662 13.5518 66.719 13.5877C66.9716 13.6209 67.222 13.6693 67.4689 13.7326C68.1169 13.8176 68.7347 14.0601 69.2688 14.4392C69.4033 14.5936 69.4965 14.78 69.5396 14.9808C69.5826 15.1816 69.5741 15.3901 69.5147 15.5866C69.3428 16.5529 69.1548 17.5957 68.9508 18.715C68.7528 19.8383 68.5368 20.9797 68.3028 22.1513C68.0689 23.3229 67.8049 24.5247 67.5949 25.6782C67.3849 26.8317 67.1509 27.955 66.923 29.0119C66.695 30.0688 66.455 31.035 66.245 31.9228Z" fill="#3F51B5"/>
<path d="M79.408 27.5745L77.1282 30.5942C77.3621 30.5942 77.7281 30.564 78.1541 30.5519C78.5801 30.5398 79.102 30.5217 79.648 30.4915L81.3938 30.4432L83.0977 30.3888C83.6257 30.3888 84.0816 30.3526 84.4776 30.3466H85.2695C85.4386 30.3378 85.6073 30.3687 85.7625 30.4368C85.9176 30.5049 86.0549 30.6084 86.1635 30.7391C86.4162 31.1619 86.5277 31.655 86.4814 32.1463C86.4906 32.4596 86.4459 32.7722 86.3495 33.0703C86.2784 33.2804 86.1592 33.4707 86.0015 33.6259C85.8608 33.7577 85.6956 33.8603 85.5155 33.9278C85.3206 33.9983 85.1198 34.0508 84.9156 34.0849C83.1157 34.3989 81.1718 34.6405 79.102 34.8096C77.0322 34.9787 74.9443 35.0632 72.8505 35.0451C72.4018 35.0715 71.9569 34.9484 71.5846 34.6948C71.2932 34.4758 71.0822 34.1657 70.9846 33.8131C70.8768 33.4404 70.8563 33.0476 70.9246 32.6656C70.9913 32.2655 71.1339 31.8821 71.3446 31.5363C72.0005 30.5096 72.7445 29.4085 73.5764 28.2328L76.1082 24.6516C76.9662 23.4437 77.7821 22.2661 78.5741 21.1126C79.366 19.9591 80.0379 18.9143 80.6139 17.9721C79.888 18.0084 79.132 18.0386 78.3581 18.0567C77.5841 18.0748 76.8042 18.0929 76.0362 18.099L73.8344 18.1412C73.1325 18.1412 72.4965 18.1714 71.9206 18.1714C71.7187 18.1978 71.5135 18.1748 71.3224 18.1044C71.1313 18.0339 70.9599 17.9181 70.8226 17.7668C70.5444 17.2953 70.4147 16.7499 70.4507 16.2026C70.4507 14.8076 70.8706 14.0829 71.7766 14.0285C74.1164 13.9138 76.4142 13.8353 78.6581 13.793C80.9019 13.7507 83.1877 13.793 85.5095 13.8836C85.8537 13.8853 86.1841 14.0192 86.4334 14.258C86.661 14.4871 86.8244 14.7724 86.9074 15.0854C86.9979 15.4113 87.0224 15.7523 86.9794 16.0879C86.9494 16.4129 86.8513 16.7279 86.6914 17.0119C85.9435 18.2479 85.1575 19.4699 84.3336 20.6777C83.5097 21.8856 82.6877 23.0693 81.8678 24.2288C81.0319 25.3763 80.2119 26.4915 79.408 27.5745Z" fill="#3F51B5"/>
<path d="M37.2252 5.31993C37.0754 5.21343 36.8903 5.16965 36.709 5.19781C36.5277 5.22598 36.3643 5.32388 36.2533 5.47091L31.4837 10.2661C31.3405 10.3785 31.2453 10.5417 31.2174 10.7223C31.1896 10.903 31.2311 11.0875 31.3337 11.2384C31.4845 11.342 31.6688 11.384 31.8492 11.356C32.0297 11.3279 32.1928 11.2319 32.3056 11.0874L37.1052 6.2862C37.2421 6.1697 37.3304 6.00565 37.3526 5.82664C37.3748 5.64763 37.3294 5.46675 37.2252 5.31993Z" fill="#3F51B5"/>
<path d="M46.8485 9.92789L41.0889 4.12417C40.9327 4.01964 40.7427 3.97894 40.5577 4.01035C40.3727 4.04176 40.2066 4.14293 40.093 4.29327L32.2576 12.1805L38.0232 17.9842C38.4791 18.4432 39.3671 18.2862 40.009 17.646L46.6805 10.9244C46.8307 10.8121 46.9319 10.6457 46.9632 10.4601C46.9945 10.2744 46.9534 10.0838 46.8485 9.92789ZM42.6968 9.13071C42.7536 9.05892 42.8354 9.01151 42.9256 8.99806C43.0158 8.98461 43.1077 9.00611 43.1828 9.05824L44.4187 10.3023C44.4705 10.3779 44.4918 10.4704 44.4785 10.5612C44.4651 10.652 44.418 10.7343 44.3467 10.7915L42.6608 12.4885C42.604 12.5603 42.5222 12.6077 42.432 12.6212C42.3418 12.6346 42.2499 12.6131 42.1748 12.561L40.9389 11.3169C40.8864 11.2411 40.8651 11.1477 40.8797 11.0564C40.8942 10.9652 40.9434 10.8832 41.0169 10.8277L42.6968 9.13071ZM40.261 6.82372L41.4969 8.06176C41.5574 8.15671 41.5811 8.27077 41.5634 8.38216C41.5457 8.49356 41.4878 8.59449 41.4009 8.66569C41.331 8.75459 41.2301 8.8134 41.1187 8.83022C41.0073 8.84704 40.8937 8.82061 40.8009 8.75628L39.559 7.52427C39.4951 7.4309 39.4689 7.31656 39.4856 7.20442C39.5023 7.09229 39.5607 6.99074 39.649 6.92035C39.7193 6.82841 39.822 6.76714 39.9359 6.74916C40.0497 6.73118 40.1661 6.75787 40.261 6.82372ZM38.8571 8.21878L40.093 9.46287C40.1563 9.55696 40.1815 9.67177 40.1637 9.78395C40.1459 9.89613 40.0863 9.99727 39.997 10.0668C39.9271 10.1557 39.8262 10.2145 39.7148 10.2313C39.6034 10.2481 39.4898 10.2217 39.3971 10.1574L38.1552 8.93745C38.0904 8.84384 38.0643 8.72862 38.0822 8.61601C38.1001 8.5034 38.1607 8.40215 38.2511 8.33353C38.3187 8.24034 38.4189 8.17658 38.5315 8.15526C38.6441 8.13394 38.7606 8.15666 38.8571 8.21878ZM39.2591 15.6893L35.3534 11.7517C35.2908 11.6579 35.2654 11.544 35.2821 11.4322C35.2987 11.3205 35.3562 11.219 35.4434 11.1478C35.5133 11.0589 35.6142 11.0001 35.7256 10.9833C35.837 10.9665 35.9506 10.9929 36.0433 11.0572L39.955 14.9948C40.0189 15.0882 40.0452 15.2025 40.0285 15.3147C40.0118 15.4268 39.9533 15.5284 39.865 15.5987C39.7949 15.6888 39.6939 15.7493 39.5818 15.7683C39.4697 15.7872 39.3546 15.7634 39.2591 15.7014V15.6893ZM40.663 14.2761L36.7513 10.3386C36.6894 10.244 36.6649 10.1296 36.6827 10.0178C36.7005 9.90605 36.7592 9.80502 36.8473 9.73463C36.9154 9.64354 37.016 9.58259 37.1279 9.56457C37.2397 9.54655 37.3542 9.57287 37.4472 9.63801L41.3589 13.5756C41.4089 13.6744 41.4265 13.7867 41.4093 13.8962C41.392 14.0058 41.3407 14.107 41.2628 14.1855C41.1849 14.2639 41.0843 14.3155 40.9755 14.3329C40.8667 14.3502 40.7552 14.3325 40.657 14.2822L40.663 14.2761Z" fill="#8C9EFF"/>
</svg>
