<svg width="20" height="20" viewBox="0 0 20 20" fill="none" xmlns="http://www.w3.org/2000/svg">
<path fill-rule="evenodd" clip-rule="evenodd" d="M15.2087 5.83331C15.2087 7.5592 13.8095 8.95831 12.0837 8.95831C10.3578 8.95831 8.95866 7.5592 8.95866 5.83331C8.95866 4.10742 10.3578 2.70831 12.0837 2.70831C13.8095 2.70831 15.2087 4.10742 15.2087 5.83331ZM12.0837 7.70831C13.1192 7.70831 13.9587 6.86885 13.9587 5.83331C13.9587 4.79778 13.1192 3.95831 12.0837 3.95831C11.0481 3.95831 10.2087 4.79778 10.2087 5.83331C10.2087 6.86885 11.0481 7.70831 12.0837 7.70831Z" fill="#343E4C"/>
<path fill-rule="evenodd" clip-rule="evenodd" d="M4.79199 14.1666C4.79199 15.8925 6.1911 17.2916 7.91699 17.2916C9.64288 17.2916 11.042 15.8925 11.042 14.1666C11.042 12.4408 9.64288 11.0416 7.91699 11.0416C6.1911 11.0416 4.79199 12.4408 4.79199 14.1666ZM7.91699 16.0416C6.88146 16.0416 6.04199 15.2022 6.04199 14.1666C6.04199 13.1311 6.88146 12.2916 7.91699 12.2916C8.95253 12.2916 9.79199 13.1311 9.79199 14.1666C9.79199 15.2022 8.95253 16.0416 7.91699 16.0416Z" fill="#343E4C"/>
<path d="M11.8753 14.1321C11.8753 13.7869 12.1551 13.5071 12.5003 13.5071H18.3337C18.6788 13.5071 18.9587 13.7869 18.9587 14.1321C18.9587 14.4773 18.6788 14.7571 18.3337 14.7571H12.5003C12.1551 14.7571 11.8753 14.4773 11.8753 14.1321Z" fill="#343E4C"/>
<path d="M7.50033 5.17375C7.8455 5.17375 8.12533 5.45357 8.12533 5.79875C8.12533 6.14392 7.8455 6.42375 7.50033 6.42375L1.66699 6.42375C1.32181 6.42375 1.04199 6.14392 1.04199 5.79875C1.04199 5.45357 1.32181 5.17375 1.66699 5.17375L7.50033 5.17375Z" fill="#343E4C"/>
<path d="M1.04199 14.1321C1.04199 13.7869 1.32181 13.5071 1.66699 13.5071H3.33366C3.67884 13.5071 3.95866 13.7869 3.95866 14.1321C3.95866 14.4773 3.67884 14.7571 3.33366 14.7571H1.66699C1.32181 14.7571 1.04199 14.4773 1.04199 14.1321Z" fill="#343E4C"/>
<path d="M18.3337 5.17375C18.6788 5.17375 18.9587 5.45357 18.9587 5.79875C18.9587 6.14392 18.6788 6.42375 18.3337 6.42375H16.667C16.3218 6.42375 16.042 6.14392 16.042 5.79875C16.042 5.45357 16.3218 5.17375 16.667 5.17375H18.3337Z" fill="#343E4C"/>
</svg>
