<svg width="90" height="64" viewBox="0 0 90 64" fill="none" xmlns="http://www.w3.org/2000/svg">
<path fill-rule="evenodd" clip-rule="evenodd" d="M44.9426 21.25H45.0574C47.3658 21.25 49.1748 21.25 50.5863 21.4397C52.031 21.634 53.1711 22.0393 54.0659 22.9341C54.9607 23.8289 55.366 24.969 55.5603 26.4137C55.75 27.8252 55.75 29.6342 55.75 31.9426V35C55.75 39.2802 52.2802 42.75 48 42.75H44.9426C42.6342 42.75 40.8252 42.75 39.4137 42.5603C37.969 42.366 36.8289 41.9607 35.9341 41.0659C35.0393 40.1711 34.634 39.031 34.4397 37.5863C34.25 36.1748 34.25 34.3658 34.25 32.0574V31.9426C34.25 29.6342 34.25 27.8252 34.4397 26.4137C34.634 24.969 35.0393 23.8289 35.9341 22.9341C36.8289 22.0393 37.969 21.634 39.4137 21.4397C40.8252 21.25 42.6342 21.25 44.9426 21.25ZM39.6136 22.9264C38.3352 23.0982 37.5645 23.4251 36.9948 23.9948C36.4251 24.5645 36.0982 25.3352 35.9264 26.6136C35.7516 27.9136 35.75 29.6218 35.75 32C35.75 34.3782 35.7516 36.0864 35.9264 37.3864C36.0982 38.6648 36.4251 39.4355 36.9948 40.0052C37.5645 40.5749 38.3352 40.9018 39.6136 41.0736C40.9136 41.2484 42.6218 41.25 45 41.25H47.2504C47.2538 39.8837 47.2835 38.9862 47.5314 38.2232C48.1002 36.4726 49.4726 35.1002 51.2232 34.5314C51.9862 34.2835 52.8837 34.2538 54.25 34.2504V32C54.25 29.6218 54.2484 27.9136 54.0736 26.6136C53.9018 25.3352 53.5749 24.5645 53.0052 23.9948C52.4355 23.4251 51.6648 23.0982 50.3864 22.9264C49.0864 22.7516 47.3782 22.75 45 22.75C42.6218 22.75 40.9136 22.7516 39.6136 22.9264ZM54.2053 35.7513C52.8482 35.7571 52.2061 35.7892 51.6867 35.958C50.3928 36.3784 49.3784 37.3928 48.958 38.6867C48.7892 39.2061 48.7571 39.8482 48.7513 41.2053C51.6025 40.8637 53.8637 38.6025 54.2053 35.7513Z" fill="#343E4C"/>
</svg>
