<svg width="22" height="22" viewBox="0 0 22 22" fill="none" xmlns="http://www.w3.org/2000/svg">
<path fill-rule="evenodd" clip-rule="evenodd" d="M11 1.75003C5.89137 1.75003 1.75 5.8914 1.75 11C1.75 15.8562 5.49219 19.8384 10.2501 20.2201C10.2524 17.9634 10.2837 16.5871 10.6849 15.4404C11.4639 13.2142 13.2142 11.4639 15.4403 10.6849C16.587 10.2837 17.9634 10.2524 20.22 10.2502C19.8383 5.49222 15.8562 1.75003 11 1.75003ZM20.0404 11.751C17.8516 11.7573 16.7912 11.8014 15.9358 12.1008C14.1405 12.729 12.7289 14.1405 12.1007 15.9358C11.8014 16.7913 11.7573 17.8517 11.751 20.0405C11.9011 19.9552 12.045 19.845 12.1779 19.7121L19.712 12.178C19.845 12.045 19.9552 11.9011 20.0404 11.751ZM0.25 11C0.25 5.06297 5.06294 0.250031 11 0.250031C16.9371 0.250031 21.75 5.06297 21.75 11C21.75 11.8843 21.3423 12.6691 20.7727 13.2386L13.2386 20.7727C12.669 21.3423 11.8843 21.75 11 21.75C5.06294 21.75 0.25 16.9371 0.25 11Z" fill="#343E4C"/>
</svg>
