<svg width="90" height="64" viewBox="0 0 90 64" fill="none" xmlns="http://www.w3.org/2000/svg">
<path fill-rule="evenodd" clip-rule="evenodd" d="M44.5 22.75C39.6675 22.75 35.75 26.6675 35.75 31.5C35.75 36.3325 39.6675 40.25 44.5 40.25C49.3325 40.25 53.25 36.3325 53.25 31.5C53.25 26.6675 49.3325 22.75 44.5 22.75ZM34.25 31.5C34.25 25.8391 38.8391 21.25 44.5 21.25C50.1609 21.25 54.75 25.8391 54.75 31.5C54.75 34.0605 53.8111 36.4017 52.2589 38.1982L55.5303 41.4697C55.8232 41.7626 55.8232 42.2374 55.5303 42.5303C55.2374 42.8232 54.7626 42.8232 54.4697 42.5303L51.1982 39.2589C49.4017 40.8111 47.0605 41.75 44.5 41.75C38.8391 41.75 34.25 37.1609 34.25 31.5Z" fill="#343E4C"/>
</svg>
