<svg width="22" height="22" viewBox="0 0 22 22" fill="none" xmlns="http://www.w3.org/2000/svg">
<path d="M10.9425 0.25H11.0573C13.3657 0.249987 15.1747 0.249977 16.5862 0.439747C18.0309 0.633986 19.171 1.03933 20.0658 1.93414C20.9606 2.82895 21.3659 3.96897 21.5602 5.41371C21.7499 6.82519 21.7499 8.63423 21.7499 10.9426V11.0574C21.7499 13.3658 21.7499 15.1748 21.5602 16.5863C21.3659 18.031 20.9606 19.1711 20.0658 20.0659C19.2374 20.8943 18.198 21.3038 16.8993 21.514C15.6225 21.7207 14.0164 21.7458 12.0013 21.7494C11.5871 21.7502 11.2507 21.415 11.2499 21.0008C11.2492 20.5866 11.5843 20.2502 11.9986 20.2494C14.0385 20.2457 15.5216 20.2175 16.6596 20.0333C17.7756 19.8526 18.4765 19.5338 19.0051 19.0052C19.5748 18.4355 19.9017 17.6648 20.0735 16.3864C20.2483 15.0864 20.2499 13.3782 20.2499 11C20.2499 8.62178 20.2483 6.91356 20.0735 5.61358C19.9017 4.33517 19.5748 3.56445 19.0051 2.9948C18.4355 2.42514 17.6647 2.09825 16.3863 1.92637C15.0864 1.75159 13.3781 1.75 10.9999 1.75C8.62169 1.75 6.91347 1.75159 5.61349 1.92637C4.33509 2.09825 3.56437 2.42514 2.99471 2.9948C2.46609 3.52341 2.1473 4.22427 1.96665 5.34031C1.78246 6.47827 1.75416 7.96143 1.75049 10.0014C1.74974 10.4156 1.41335 10.7507 0.999141 10.75C0.584928 10.7493 0.249747 10.4129 0.250493 9.99865C0.254122 7.9835 0.279258 6.37741 0.485923 5.10063C0.696137 3.80193 1.10563 2.76255 1.93405 1.93414C2.82886 1.03933 3.96888 0.633986 5.41362 0.439747C6.82511 0.249977 8.63414 0.249987 10.9425 0.25Z" fill="#343E4C"/>
<path d="M15.5 11C15.5 11.4142 15.1642 11.75 14.75 11.75H11C10.5858 11.75 10.25 11.4142 10.25 11V7.25C10.25 6.83579 10.5858 6.5 11 6.5C11.4142 6.5 11.75 6.83579 11.75 7.25V9.18934L15.4697 5.46967C15.7626 5.17678 16.2374 5.17678 16.5303 5.46967C16.8232 5.76256 16.8232 6.23744 16.5303 6.53033L12.8107 10.25H14.75C15.1642 10.25 15.5 10.5858 15.5 11Z" fill="#343E4C"/>
<path fill-rule="evenodd" clip-rule="evenodd" d="M4.948 12.25C4.04952 12.25 3.3003 12.2499 2.70552 12.3299C2.07773 12.4143 1.51093 12.6 1.05546 13.0555C0.59999 13.5109 0.414319 14.0777 0.329914 14.7055C0.249949 15.3003 0.249973 16.0495 0.250001 16.948V17.052C0.249973 17.9505 0.249949 18.6997 0.329914 19.2945C0.414319 19.9223 0.59999 20.4891 1.05546 20.9445C1.51093 21.4 2.07773 21.5857 2.70552 21.6701C3.3003 21.7501 4.04951 21.75 4.94798 21.75H5.052C5.95047 21.75 6.69971 21.7501 7.29448 21.6701C7.92228 21.5857 8.48908 21.4 8.94455 20.9445C9.40002 20.4891 9.58569 19.9223 9.67009 19.2945C9.75006 18.6997 9.75003 17.9505 9.75 17.052V16.948C9.75003 16.0495 9.75006 15.3003 9.67009 14.7055C9.58569 14.0777 9.40002 13.5109 8.94455 13.0555C8.48908 12.6 7.92228 12.4143 7.29448 12.3299C6.6997 12.2499 5.95048 12.25 5.052 12.25H4.948ZM2.11612 14.1161C2.24644 13.9858 2.44393 13.8786 2.9054 13.8165C3.38843 13.7516 4.03599 13.75 5 13.75C5.96401 13.75 6.61157 13.7516 7.09461 13.8165C7.55607 13.8786 7.75357 13.9858 7.88389 14.1161C8.0142 14.2464 8.12143 14.4439 8.18347 14.9054C8.24841 15.3884 8.25 16.036 8.25 17C8.25 17.964 8.24841 18.6116 8.18347 19.0946C8.12143 19.5561 8.0142 19.7536 7.88389 19.8839C7.75357 20.0142 7.55607 20.1214 7.09461 20.1835C6.61157 20.2484 5.96401 20.25 5 20.25C4.03599 20.25 3.38843 20.2484 2.9054 20.1835C2.44393 20.1214 2.24644 20.0142 2.11612 19.8839C1.9858 19.7536 1.87858 19.5561 1.81654 19.0946C1.7516 18.6116 1.75 17.964 1.75 17C1.75 16.036 1.7516 15.3884 1.81654 14.9054C1.87858 14.4439 1.9858 14.2464 2.11612 14.1161Z" fill="#343E4C"/>
</svg>
