<svg width="90" height="64" viewBox="0 0 90 64" fill="none" xmlns="http://www.w3.org/2000/svg">
<path fill-rule="evenodd" clip-rule="evenodd" d="M45 21.25C42.3766 21.25 40.25 23.3766 40.25 26C40.25 28.6234 42.3766 30.75 45 30.75C47.6233 30.75 49.75 28.6234 49.75 26C49.75 23.3766 47.6233 21.25 45 21.25ZM41.75 26C41.75 24.2051 43.2051 22.75 45 22.75C46.7949 22.75 48.25 24.2051 48.25 26C48.25 27.7949 46.7949 29.25 45 29.25C43.2051 29.25 41.75 27.7949 41.75 26Z" fill="#343E4C"/>
<path fill-rule="evenodd" clip-rule="evenodd" d="M45 32.25C42.6864 32.25 40.5549 32.7759 38.9754 33.6643C37.4195 34.5396 36.25 35.8661 36.25 37.5L36.2499 37.602C36.2488 38.7638 36.2474 40.222 37.5264 41.2635C38.1559 41.7761 39.0365 42.1406 40.2262 42.3815C41.4193 42.6229 42.9742 42.75 45 42.75C47.0258 42.75 48.5807 42.6229 49.7738 42.3815C50.9635 42.1406 51.8441 41.7761 52.4736 41.2635C53.7526 40.222 53.7512 38.7638 53.7501 37.602L53.75 37.5C53.75 35.8661 52.5805 34.5396 51.0245 33.6643C49.4451 32.7759 47.3135 32.25 45 32.25ZM37.75 37.5C37.75 36.6487 38.3714 35.7251 39.7108 34.9717C41.0268 34.2315 42.8953 33.75 45 33.75C47.1047 33.75 48.9732 34.2315 50.2892 34.9717C51.6286 35.7251 52.25 36.6487 52.25 37.5C52.25 38.8078 52.2097 39.544 51.5264 40.1004C51.1559 40.4022 50.5365 40.6967 49.4762 40.9113C48.4193 41.1252 46.9742 41.25 45 41.25C43.0258 41.25 41.5807 41.1252 40.5238 40.9113C39.4635 40.6967 38.8441 40.4022 38.4736 40.1004C37.7903 39.544 37.75 38.8078 37.75 37.5Z" fill="#343E4C"/>
</svg>
